<svg width="55" height="54" viewBox="0 0 55 54" fill="none" xmlns="http://www.w3.org/2000/svg">
<path d="M19.9062 50.6252H10.625C10.4012 50.6252 10.1866 50.5363 10.0284 50.3781C9.87014 50.2198 9.78125 50.0052 9.78125 49.7814C9.78125 49.5577 9.87014 49.343 10.0284 49.1848C10.1866 49.0266 10.4012 48.9377 10.625 48.9377H19.0625V38.8127C19.0625 38.3651 18.8847 37.9359 18.5682 37.6194C18.2518 37.303 17.8226 37.1252 17.375 37.1252C17.1512 37.1252 16.9366 37.0363 16.7784 36.8781C16.6201 36.7198 16.5312 36.5052 16.5312 36.2814V35.4377C16.5312 34.9901 16.3535 34.5609 16.037 34.2444C15.7205 33.928 15.2913 33.7502 14.8438 33.7502H9.78125C9.3337 33.7502 8.90448 33.928 8.58801 34.2444C8.27154 34.5609 8.09375 34.9901 8.09375 35.4377V36.2814C8.09375 36.5052 8.00486 36.7198 7.84662 36.8781C7.68839 37.0363 7.47378 37.1252 7.25 37.1252C6.80245 37.1252 6.37322 37.303 6.05676 37.6194C5.74029 37.9359 5.5625 38.3651 5.5625 38.8127V48.9377H7.25C7.47378 48.9377 7.68839 49.0266 7.84662 49.1848C8.00486 49.343 8.09375 49.5577 8.09375 49.7814C8.09375 50.0052 8.00486 50.2198 7.84662 50.3781C7.68839 50.5363 7.47378 50.6252 7.25 50.6252H4.71875C4.49497 50.6252 4.28036 50.5363 4.12213 50.3781C3.96389 50.2198 3.875 50.0052 3.875 49.7814V38.8127C3.87556 38.0649 4.12445 37.3385 4.5826 36.7474C5.04075 36.1564 5.6822 35.7343 6.40625 35.5474V35.4377C6.40625 34.5426 6.76183 33.6841 7.39476 33.0512C8.0277 32.4183 8.88614 32.0627 9.78125 32.0627H14.8438C15.7389 32.0627 16.5973 32.4183 17.2302 33.0512C17.8632 33.6841 18.2188 34.5426 18.2188 35.4377V35.5474C18.9428 35.7343 19.5843 36.1564 20.0424 36.7474C20.5006 37.3385 20.7494 38.0649 20.75 38.8127V49.7814C20.75 50.0052 20.6611 50.2198 20.5029 50.3781C20.3446 50.5363 20.13 50.6252 19.9062 50.6252ZM50.2812 50.6252H39.3125C39.0887 50.6252 38.8741 50.5363 38.7159 50.3781C38.5576 50.2198 38.4688 50.0052 38.4688 49.7814V41.3439C38.4688 41.1202 38.5576 40.9055 38.7159 40.7473C38.8741 40.5891 39.0887 40.5002 39.3125 40.5002C39.5363 40.5002 39.7509 40.5891 39.9091 40.7473C40.0674 40.9055 40.1562 41.1202 40.1562 41.3439V48.9377H49.4375V38.8127C49.4375 38.3651 49.2597 37.9359 48.9432 37.6194C48.6268 37.303 48.1976 37.1252 47.75 37.1252C47.5262 37.1252 47.3116 37.0363 47.1534 36.8781C46.9951 36.7198 46.9062 36.5052 46.9062 36.2814V35.4377C46.9062 34.9901 46.7285 34.5609 46.412 34.2444C46.0955 33.928 45.6663 33.7502 45.2188 33.7502H40.1562V37.9689C40.1562 38.1927 40.0674 38.4073 39.9091 38.5656C39.7509 38.7238 39.5363 38.8127 39.3125 38.8127C39.0887 38.8127 38.8741 38.7238 38.7159 38.5656C38.5576 38.4073 38.4688 38.1927 38.4688 37.9689V33.0583C38.4693 32.8883 38.5211 32.7225 38.6174 32.5825C38.7138 32.4425 38.8502 32.3348 39.0087 32.2736C39.3741 32.13 39.7637 32.0584 40.1562 32.0627H45.2188C46.1139 32.0627 46.9723 32.4183 47.6052 33.0512C48.2382 33.6841 48.5938 34.5426 48.5938 35.4377V35.5474C49.3178 35.7343 49.9593 36.1564 50.4174 36.7474C50.8756 37.3385 51.1244 38.0649 51.125 38.8127V49.7814C51.125 50.0052 51.0361 50.2198 50.8779 50.3781C50.7196 50.5363 50.505 50.6252 50.2812 50.6252Z" fill="#FAFAFA"/>
<path d="M39.3125 50.625H19.9062C19.6825 50.625 19.4679 50.5361 19.3096 50.3779C19.1514 50.2196 19.0625 50.005 19.0625 49.7812V38.8125C19.0625 38.3649 18.8847 37.9357 18.5682 37.6193C18.2518 37.3028 17.8226 37.125 17.375 37.125C17.1512 37.125 16.9366 37.0361 16.7784 36.8779C16.6201 36.7196 16.5312 36.505 16.5312 36.2812V35.4375C16.5312 34.9899 16.3535 34.5607 16.037 34.2443C15.7205 33.9278 15.2913 33.75 14.8438 33.75H9.78125C9.55747 33.75 9.34286 33.6611 9.18463 33.5029C9.02639 33.3446 8.9375 33.13 8.9375 32.9062V22.7812C8.9375 22.5575 9.02639 22.3429 9.18463 22.1846C9.34286 22.0264 9.55747 21.9375 9.78125 21.9375H15.6875C15.9113 21.9375 16.1259 22.0264 16.2841 22.1846C16.4424 22.3429 16.5312 22.5575 16.5312 22.7812V25.3125H20.75V22.7812C20.75 22.5575 20.8389 22.3429 20.9971 22.1846C21.1554 22.0264 21.37 21.9375 21.5938 21.9375H27.5C27.7238 21.9375 27.9384 22.0264 28.0966 22.1846C28.2549 22.3429 28.3438 22.5575 28.3438 22.7812V25.3125H32.5625V22.7812C32.5625 22.5575 32.6514 22.3429 32.8096 22.1846C32.9679 22.0264 33.1825 21.9375 33.4062 21.9375H39.3125C39.5363 21.9375 39.7509 22.0264 39.9091 22.1846C40.0674 22.3429 40.1562 22.5575 40.1562 22.7812V37.9688C40.1562 38.1925 40.0674 38.4071 39.9091 38.5654C39.7509 38.7236 39.5363 38.8125 39.3125 38.8125C39.0887 38.8125 38.8741 38.7236 38.7159 38.5654C38.5576 38.4071 38.4688 38.1925 38.4688 37.9688V23.625H34.25V26.1562C34.25 26.38 34.1611 26.5946 34.0029 26.7529C33.8446 26.9111 33.63 27 33.4062 27H27.5C27.2762 27 27.0616 26.9111 26.9034 26.7529C26.7451 26.5946 26.6562 26.38 26.6562 26.1562V23.625H22.4375V26.1562C22.4375 26.38 22.3486 26.5946 22.1904 26.7529C22.0321 26.9111 21.8175 27 21.5938 27H15.6875C15.4637 27 15.2491 26.9111 15.0909 26.7529C14.9326 26.5946 14.8438 26.38 14.8438 26.1562V23.625H10.625V32.0625H14.8438C15.7389 32.0625 16.5973 32.4181 17.2302 33.051C17.8632 33.684 18.2188 34.5424 18.2188 35.4375V35.5472C18.9428 35.7341 19.5843 36.1563 20.0424 36.7473C20.5006 37.3383 20.7494 38.0647 20.75 38.8125V48.9375H38.4688V41.3438C38.4688 41.12 38.5576 40.9054 38.7159 40.7471C38.8741 40.5889 39.0887 40.5 39.3125 40.5C39.5363 40.5 39.7509 40.5889 39.9091 40.7471C40.0674 40.9054 40.1562 41.12 40.1562 41.3438V49.7812C40.1562 50.005 40.0674 50.2196 39.9091 50.3779C39.7509 50.5361 39.5363 50.625 39.3125 50.625Z" fill="#FAFAFA"/>
<path d="M34.25 50.625H25.8125C25.5887 50.625 25.3741 50.5361 25.2159 50.3779C25.0576 50.2196 24.9688 50.005 24.9688 49.7812V45.5625C24.9688 45.3387 25.0576 45.1241 25.2159 44.9659C25.3741 44.8076 25.5887 44.7188 25.8125 44.7188C26.0363 44.7188 26.2509 44.8076 26.4091 44.9659C26.5674 45.1241 26.6562 45.3387 26.6562 45.5625V48.9375H33.4062V42.1875C33.4062 41.2924 33.0507 40.434 32.4177 39.801C31.7848 39.1681 30.9264 38.8125 30.0312 38.8125C29.1361 38.8125 28.2777 39.1681 27.6448 39.801C27.0118 40.434 26.6562 41.2924 26.6562 42.1875C26.6562 42.4113 26.5674 42.6259 26.4091 42.7841C26.2509 42.9424 26.0363 43.0312 25.8125 43.0312C25.5887 43.0312 25.3741 42.9424 25.2159 42.7841C25.0576 42.6259 24.9688 42.4113 24.9688 42.1875C24.9688 40.8448 25.5021 39.5572 26.4515 38.6078C27.4009 37.6584 28.6886 37.125 30.0312 37.125C31.3739 37.125 32.6616 37.6584 33.611 38.6078C34.5604 39.5572 35.0938 40.8448 35.0938 42.1875V49.7812C35.0938 50.005 35.0049 50.2196 34.8466 50.3779C34.6884 50.5361 34.4738 50.625 34.25 50.625ZM12.3125 23.625C12.0887 23.625 11.8741 23.5361 11.7159 23.3779C11.5576 23.2196 11.4688 23.005 11.4688 22.7812V10.9688C11.4688 10.745 11.5576 10.5304 11.7159 10.3721C11.8741 10.2139 12.0887 10.125 12.3125 10.125C12.5363 10.125 12.7509 10.2139 12.9091 10.3721C13.0674 10.5304 13.1562 10.745 13.1562 10.9688V22.7812C13.1562 23.005 13.0674 23.2196 12.9091 23.3779C12.7509 23.5361 12.5363 23.625 12.3125 23.625Z" fill="#FAFAFA"/>
<path d="M22.4375 18.5623H21.5938C21.37 18.5623 21.1554 18.4734 20.9971 18.3152C20.8389 18.1569 20.75 17.9423 20.75 17.7185C20.75 17.4948 20.8389 17.2801 20.9971 17.1219C21.1554 16.9637 21.37 16.8748 21.5938 16.8748V11.8123H13.1563V16.8748H18.2188C18.4425 16.8748 18.6571 16.9637 18.8154 17.1219C18.9736 17.2801 19.0625 17.4948 19.0625 17.7185C19.0625 17.9423 18.9736 18.1569 18.8154 18.3152C18.6571 18.4734 18.4425 18.5623 18.2188 18.5623H12.3125C12.0887 18.5623 11.8741 18.4734 11.7159 18.3152C11.5576 18.1569 11.4688 17.9423 11.4688 17.7185V10.9685C11.4688 10.7448 11.5576 10.5302 11.7159 10.3719C11.8741 10.2137 12.0887 10.1248 12.3125 10.1248H22.4375C22.6613 10.1248 22.8759 10.2137 23.0341 10.3719C23.1924 10.5302 23.2813 10.7448 23.2813 10.9685V17.7185C23.2813 17.9423 23.1924 18.1569 23.0341 18.3152C22.8759 18.4734 22.6613 18.5623 22.4375 18.5623ZM35.0094 18.8998C34.5776 18.9011 34.1463 18.8729 33.7184 18.8154C33.0828 18.7432 32.4556 18.6105 31.8453 18.4188C31.7271 18.3789 31.6181 18.3158 31.5247 18.2332C31.0468 17.7977 30.6116 17.3174 30.2253 16.7989C29.0928 15.2996 28.3827 13.5242 28.169 11.6575C27.9553 9.79076 28.2458 7.90086 29.0103 6.18448C29.1593 5.84439 29.3254 5.51209 29.5081 5.18885L30.6809 3.15541C30.7363 3.05858 30.8102 2.97367 30.8986 2.9056C30.9869 2.83754 31.0879 2.78766 31.1956 2.75885C31.4124 2.706 31.6411 2.73609 31.8369 2.84323L44.9909 10.437C45.0876 10.4921 45.1724 10.5658 45.2405 10.6538C45.3086 10.7419 45.3586 10.8425 45.3876 10.95C45.4166 11.0574 45.4241 11.1695 45.4096 11.2799C45.3951 11.3902 45.3589 11.4966 45.3031 11.5929L44.1303 13.6264C43.9482 13.9522 43.7482 14.2676 43.5313 14.5714C42.5543 15.9154 41.2725 17.0085 39.7911 17.7609C38.3097 18.5134 36.6709 18.9037 35.0094 18.8998ZM32.5625 16.8748C33.0216 17.0051 33.4898 17.1009 33.9631 17.1617C35.5289 17.3542 37.1176 17.124 38.5643 16.4948C40.011 15.8657 41.2628 14.8607 42.1897 13.5842C42.3787 13.3344 42.5506 13.0723 42.7044 12.7995L43.4553 11.5001L31.7188 4.73323L30.9678 6.0326C30.8102 6.30505 30.6693 6.58682 30.5459 6.87635C29.9028 8.31832 29.6583 9.90642 29.8378 11.4751C30.0174 13.0437 30.6145 14.5355 31.5669 15.7948C31.8663 16.1834 32.1995 16.5448 32.5625 16.8748Z" fill="#FAFAFA"/>
<path d="M42.8309 14.9095C42.6831 14.9106 42.5376 14.8727 42.4091 14.7999L29.3562 7.26518C29.1773 7.16205 29.0424 6.99688 28.9771 6.80094C28.9118 6.605 28.9206 6.39192 29.0019 6.20205C29.1549 5.85546 29.3267 5.51746 29.5166 5.18955L30.6894 3.15611C30.8021 2.96455 30.9858 2.8252 31.2007 2.76833C31.4155 2.71146 31.6442 2.74165 31.8369 2.85236L44.9909 10.4461C45.1839 10.5574 45.3251 10.7405 45.3835 10.9555C45.442 11.1705 45.4131 11.3999 45.3031 11.5936L44.1303 13.627C43.948 13.9528 43.7481 14.2682 43.5312 14.5721C43.4501 14.6803 43.3442 14.7675 43.2223 14.8263C43.1004 14.885 42.9662 14.9136 42.8309 14.9095ZM30.875 6.19361L42.5609 12.9436L42.6622 12.7833L43.4131 11.4839L31.7187 4.73393L30.9678 6.0333L30.875 6.19361ZM29.1031 27.0005H27.5C27.2762 27.0005 27.0616 26.9116 26.9034 26.7534C26.7451 26.5951 26.6562 26.3805 26.6562 26.1567V23.4652C26.4871 23.3428 26.3693 23.1621 26.3257 22.9579C26.2821 22.7538 26.3157 22.5407 26.42 22.3599L30.1662 15.8714C30.2361 15.7498 30.3352 15.6476 30.4545 15.574C30.5739 15.5003 30.7097 15.4575 30.8497 15.4495C30.9891 15.4413 31.1284 15.4679 31.2551 15.5268C31.3817 15.5857 31.4917 15.6751 31.5753 15.787C31.8717 16.1782 32.202 16.5425 32.5625 16.8755C33.0216 17.0058 33.4898 17.1016 33.9631 17.1624C34.1016 17.1788 34.2338 17.2293 34.348 17.3093C34.4622 17.3893 34.5547 17.4963 34.6174 17.6209C34.6801 17.7454 34.7109 17.8835 34.7072 18.0229C34.7035 18.1623 34.6652 18.2986 34.5959 18.4195L29.8372 26.5786C29.7628 26.7074 29.6558 26.8142 29.5269 26.8883C29.398 26.9624 29.2518 27.0011 29.1031 27.0005ZM28.3437 25.313H28.6137L32.495 18.563C32.2756 18.5124 32.0562 18.4449 31.8453 18.3858C31.7271 18.3459 31.6181 18.2828 31.5247 18.2002C31.3559 18.0483 31.1956 17.888 31.0269 17.7192L28.2931 22.4611C28.3306 22.5637 28.3478 22.6726 28.3437 22.7817V25.313ZM13.1562 37.1255H7.25C7.02622 37.1255 6.81161 37.0366 6.65338 36.8784C6.49514 36.7201 6.40625 36.5055 6.40625 36.2817C6.40625 36.058 6.49514 35.8433 6.65338 35.6851C6.81161 35.5269 7.02622 35.438 7.25 35.438H13.1562C13.38 35.438 13.5946 35.5269 13.7529 35.6851C13.9111 35.8433 14 36.058 14 36.2817C14 36.5055 13.9111 36.7201 13.7529 36.8784C13.5946 37.0366 13.38 37.1255 13.1562 37.1255ZM43.5312 37.1255H39.3125C39.0887 37.1255 38.8741 37.0366 38.7159 36.8784C38.5576 36.7201 38.4687 36.5055 38.4687 36.2817C38.4687 36.058 38.5576 35.8433 38.7159 35.6851C38.8741 35.5269 39.0887 35.438 39.3125 35.438H43.5312C43.755 35.438 43.9696 35.5269 44.1279 35.6851C44.2861 35.8433 44.375 36.058 44.375 36.2817C44.375 36.5055 44.2861 36.7201 44.1279 36.8784C43.9696 37.0366 43.755 37.1255 43.5312 37.1255ZM39.3125 31.2192H27.5C27.2762 31.2192 27.0616 31.1303 26.9034 30.9721C26.7451 30.8139 26.6562 30.5993 26.6562 30.3755C26.6562 30.1517 26.7451 29.9371 26.9034 29.7789C27.0616 29.6206 27.2762 29.5317 27.5 29.5317H39.3125C39.5363 29.5317 39.7509 29.6206 39.9091 29.7789C40.0674 29.9371 40.1562 30.1517 40.1562 30.3755C40.1562 30.5993 40.0674 30.8139 39.9091 30.9721C39.7509 31.1303 39.5363 31.2192 39.3125 31.2192ZM24.125 31.2192H23.2812C23.0575 31.2192 22.8429 31.1303 22.6846 30.9721C22.5264 30.8139 22.4375 30.5993 22.4375 30.3755C22.4375 30.1517 22.5264 29.9371 22.6846 29.7789C22.8429 29.6206 23.0575 29.5317 23.2812 29.5317H24.125C24.3488 29.5317 24.5634 29.6206 24.7216 29.7789C24.8799 29.9371 24.9687 30.1517 24.9687 30.3755C24.9687 30.5993 24.8799 30.8139 24.7216 30.9721C24.5634 31.1303 24.3488 31.2192 24.125 31.2192Z" fill="#FAFAFA"/>
</svg>
