<svg width="61" height="55" viewBox="0 0 61 55" fill="none" xmlns="http://www.w3.org/2000/svg">
<g clip-path="url(#clip0_1939_939)">
<path d="M12.0745 23.06C12.4362 24.0536 13.1778 24.8629 14.1361 25.3097C15.0944 25.7566 16.191 25.8045 17.1846 25.4428C18.1783 25.0812 18.9875 24.3396 19.4344 23.3813C19.8813 22.423 19.9292 21.3264 19.5675 20.3327C19.2059 19.3391 18.4643 18.5298 17.506 18.083C16.5477 17.6361 15.4511 17.5882 14.4574 17.9499C13.4638 18.3115 12.6545 19.0531 12.2077 20.0114C11.7608 20.9697 11.7129 22.0663 12.0745 23.06Z" fill="#EAEAEA"/>
<path d="M40.1537 7.26858C40.1058 7.19763 40.0565 7.12278 40.0046 7.05325C39.9528 6.98372 39.901 6.91419 39.8467 6.84999C39.8208 6.81522 39.791 6.78188 39.7665 6.75102C39.6823 6.65347 39.5982 6.55592 39.5077 6.46511C39.3888 6.34486 39.2621 6.22745 39.1344 6.11927C39.0698 6.06323 39.0027 6.01251 38.9356 5.96179C38.8994 5.93519 38.8685 5.91107 38.8338 5.88837C38.7319 5.81496 38.6261 5.74296 38.5179 5.67628C38.4444 5.63231 38.371 5.58833 38.2989 5.54826C38.1495 5.46563 37.9991 5.39223 37.8461 5.32415C36.6481 4.80114 35.2597 4.71427 33.9406 5.19437L8.85864 14.3235C7.79713 14.7098 6.93335 15.4087 6.33574 16.2803C6.31304 16.3151 6.29035 16.3499 6.26374 16.3861C6.19565 16.4904 6.12898 16.5987 6.06763 16.7094C6.04635 16.7481 6.02755 16.7814 6.00627 16.8201C5.97755 16.8747 5.95025 16.9333 5.92152 16.9879L5.86691 17.1051C5.80486 17.2381 5.74955 17.3776 5.70204 17.5142C5.68999 17.554 5.67404 17.5951 5.66199 17.6349C5.63043 17.7303 5.6003 17.8297 5.57408 17.9276C5.39403 18.5986 5.34633 19.3054 5.4498 20.0147C5.45157 20.0317 5.45335 20.0488 5.45761 20.0605C5.47183 20.1481 5.48605 20.2357 5.50417 20.322C5.5589 20.5937 5.63065 20.8637 5.72724 21.1291L14.818 46.1057C14.9487 46.4647 15.1169 46.8057 15.3147 47.1182C15.8479 47.976 16.6045 48.6464 17.4846 49.073L17.6283 49.14C17.7241 49.1847 17.8224 49.224 17.9207 49.2634C18.1159 49.3382 18.3199 49.4009 18.525 49.4544C18.5648 49.4665 18.607 49.4732 18.6468 49.4853C18.7287 49.5041 18.8146 49.5214 18.8951 49.5363L19.0218 49.5565C19.1063 49.5699 19.1893 49.5795 19.2762 49.5876C19.487 49.6081 19.7027 49.618 19.9181 49.6148C20.0061 49.6137 20.0888 49.6101 20.1754 49.6051C20.4337 49.5862 20.6941 49.5489 20.9513 49.4906C21.1812 49.4423 21.4093 49.3769 21.6357 49.2946L46.6123 40.2038C46.7528 40.1527 46.8865 40.0952 47.0203 40.0377C47.3176 39.9073 47.5957 39.7487 47.8536 39.5708C47.9593 39.497 48.0636 39.4192 48.1665 39.3376C48.3336 39.2017 48.4939 39.0593 48.6408 38.9042C48.6982 38.8435 48.7596 38.7814 48.8156 38.7168L48.8997 38.6199C49.1707 38.2959 49.404 37.9414 49.5934 37.5631C49.6097 37.5351 49.6207 37.5045 49.6331 37.4779C49.6381 37.4673 49.6445 37.4605 49.6455 37.4513C49.7001 37.3342 49.7469 37.2199 49.7923 37.1018C49.7948 37.0964 49.7959 37.0872 49.8022 37.0805C49.8292 37.0088 49.8561 36.9371 49.8792 36.8669C49.9072 36.7859 49.9313 36.7065 49.954 36.6231C49.9611 36.594 49.9681 36.5649 49.9767 36.5397C49.9827 36.5198 49.9873 36.496 49.9933 36.4762C50.0029 36.4417 50.01 36.4126 50.0156 36.3796C50.0213 36.3466 50.0284 36.3176 50.0341 36.2846C50.0351 36.2753 50.0401 36.2647 50.0412 36.2555L50.072 36.0851C50.0819 36.0152 50.0932 35.9492 50.1031 35.8793C50.1184 35.7633 50.1283 35.6448 50.1343 35.5277C50.1367 35.4738 50.1406 35.4237 50.1392 35.3712C50.143 35.2726 50.1416 35.1715 50.1402 35.0703C50.1369 35.0008 50.1362 34.9259 50.1277 34.8539C50.1227 34.7673 50.1124 34.6783 50.1035 34.5931C50.0985 34.5551 50.0935 34.5172 50.0871 34.4753C50.0757 34.3955 50.0644 34.3157 50.0477 34.2333C50.0448 34.2255 50.0459 34.2163 50.0416 34.2046C50.0267 34.1393 50.0171 34.0765 49.9983 34.0127C49.9833 33.9474 49.9645 33.8835 49.9496 33.8182C49.9119 33.6905 49.8743 33.5628 49.8274 33.434L40.6912 8.33253C40.5481 7.95149 40.3664 7.59779 40.1537 7.26858ZM36.4939 22.0937C35.1472 21.4657 33.5354 22.0523 32.9113 23.3976L26.9045 36.2793L20.8217 33.4461C19.475 32.8181 17.8632 33.4047 17.2391 34.75L15.1466 39.2374L8.2249 20.22C7.98342 19.5566 8.01763 18.837 8.32187 18.1915C8.62079 17.5435 9.15004 17.0548 9.81348 16.8133L34.7901 7.72256C35.4535 7.48109 36.1731 7.51529 36.8186 7.81954C37.4666 8.11846 37.9553 8.6477 38.1968 9.31114L44.1484 25.663L36.4939 22.0937Z" fill="#EAEAEA"/>
</g>
<path d="M25.9375 19.0992C25.9375 20.1566 26.3576 21.1707 27.1052 21.9184C27.8529 22.6661 28.867 23.0862 29.9244 23.0862C30.9818 23.0862 31.9959 22.6661 32.7436 21.9184C33.4913 21.1707 33.9114 20.1566 33.9114 19.0992C33.9114 18.0418 33.4913 17.0277 32.7436 16.28C31.9959 15.5324 30.9818 15.1123 29.9244 15.1123C28.867 15.1123 27.8529 15.5324 27.1052 16.28C26.3576 17.0277 25.9375 18.0418 25.9375 19.0992Z" fill="white"/>
<path d="M57.7159 13.8622C57.6951 13.7792 57.6744 13.692 57.6494 13.6089C57.6245 13.5258 57.5996 13.4428 57.5705 13.3639C57.5581 13.3223 57.5415 13.2808 57.529 13.2434C57.4833 13.123 57.4376 13.0025 57.3837 12.8863C57.3131 12.7326 57.2341 12.5789 57.1511 12.4336C57.1096 12.3588 57.0639 12.2882 57.0182 12.2176C56.9933 12.1802 56.9725 12.147 56.9476 12.1138C56.877 12.01 56.8022 11.9061 56.7233 11.8065C56.6693 11.74 56.6153 11.6736 56.5613 11.6113C56.4492 11.4825 56.3329 11.3621 56.2125 11.2458C55.2656 10.3446 53.9906 9.78809 52.5869 9.78809H25.8952C24.7656 9.78809 23.7149 10.1494 22.8552 10.7641C22.822 10.789 22.7887 10.8139 22.7514 10.8388C22.6517 10.9136 22.552 10.9925 22.4565 11.0755C22.4233 11.1046 22.3942 11.1295 22.361 11.1586C22.3153 11.2001 22.2696 11.2458 22.2239 11.2873L22.1326 11.3787C22.0287 11.4825 21.9291 11.5947 21.8377 11.7068C21.8128 11.74 21.7837 11.7732 21.7588 11.8065C21.6965 11.8854 21.6342 11.9684 21.576 12.0515C21.1774 12.6205 20.8908 13.2683 20.7454 13.9702C20.7413 13.9868 20.7371 14.0034 20.7371 14.0159C20.7205 14.1031 20.7039 14.1903 20.6914 14.2775C20.6499 14.5516 20.625 14.8299 20.625 15.1123V41.6918C20.625 42.0739 20.6665 42.4518 20.7454 42.8131C20.9531 43.8016 21.4348 44.6903 22.1159 45.3922L22.2281 45.5043C22.3028 45.5791 22.3817 45.6497 22.4606 45.7203C22.6185 45.8573 22.7887 45.9861 22.9632 46.1065C22.9964 46.1314 23.0338 46.1522 23.067 46.1771C23.1376 46.2228 23.2124 46.2685 23.283 46.31L23.3951 46.3723C23.4698 46.4138 23.5446 46.4512 23.6235 46.4886C23.8145 46.58 24.0139 46.663 24.2174 46.7336C24.3005 46.7627 24.3794 46.7876 24.4624 46.8125C24.7116 46.8831 24.9691 46.9371 25.2307 46.9703C25.4633 47.0036 25.7 47.0202 25.9409 47.0202H52.5204C52.6699 47.0202 52.8153 47.0119 52.9607 47.0036C53.2846 46.9828 53.6002 46.9288 53.9034 46.8499C54.028 46.8167 54.1526 46.7793 54.2772 46.7378C54.4807 46.6672 54.68 46.5883 54.8711 46.4927C54.9458 46.4554 55.0247 46.418 55.0995 46.3765L55.2116 46.3142C55.5771 46.1024 55.9176 45.849 56.225 45.5583C56.2499 45.5375 56.2706 45.5126 56.2914 45.4919C56.2997 45.4836 56.308 45.4794 56.3122 45.4711C56.4035 45.3797 56.4866 45.2884 56.5697 45.1928C56.5738 45.1887 56.578 45.1804 56.5863 45.1762C56.6361 45.1181 56.6859 45.0599 56.7316 45.0018C56.7856 44.9354 56.8354 44.8689 56.8853 44.7983C56.9019 44.7734 56.9185 44.7485 56.9351 44.7277C56.9476 44.7111 56.96 44.6903 56.9725 44.6737C56.9933 44.6446 57.0099 44.6197 57.0265 44.5907C57.0431 44.5616 57.0597 44.5367 57.0763 44.5076C57.0805 44.4993 57.0888 44.491 57.0929 44.4827L57.1802 44.3332C57.2134 44.2709 57.2466 44.2127 57.2798 44.1504C57.3338 44.0466 57.3837 43.9386 57.4293 43.8306C57.4501 43.7808 57.4709 43.7351 57.4875 43.6853C57.5249 43.5939 57.5581 43.4984 57.5913 43.4029C57.6121 43.3364 57.637 43.2658 57.6536 43.1952C57.6785 43.1122 57.6993 43.025 57.7201 42.9419C57.7284 42.9045 57.7367 42.8671 57.745 42.8256C57.7616 42.7467 57.7782 42.6678 57.7907 42.5847C57.7907 42.5764 57.7948 42.5681 57.7948 42.5557C57.8031 42.4892 57.8156 42.4269 57.8197 42.3605C57.828 42.294 57.8322 42.2276 57.8405 42.1611C57.8488 42.0282 57.8571 41.8953 57.8571 41.7583V15.0458C57.8529 14.6388 57.8031 14.2443 57.7159 13.8622ZM49.2063 26.5415C48.1556 25.4908 46.4404 25.4908 45.3938 26.5415L35.3434 36.5919L30.5965 31.8491C29.5458 30.7984 27.8305 30.7984 26.784 31.8491L23.283 35.3501V15.1123C23.283 14.4063 23.5612 13.7418 24.0679 13.2393C24.5704 12.7326 25.2349 12.4543 25.9409 12.4543H52.5204C53.2264 12.4543 53.8909 12.7326 54.3935 13.2393C54.9001 13.7418 55.1784 14.4063 55.1784 15.1123V32.5136L49.2063 26.5415Z" fill="white"/>
<defs>
<clipPath id="clip0_1939_939">
<rect width="42.5272" height="42.5272" fill="white" transform="translate(0.5 14.5449) rotate(-20)"/>
</clipPath>
</defs>
</svg>
