<svg width="61" height="60" viewBox="0 0 61 60" fill="none" xmlns="http://www.w3.org/2000/svg">
<g clip-path="url(#clip0_1941_977)">
<path d="M0.5 30C0.5 37.9565 3.66071 45.5871 9.2868 51.2132C14.9129 56.8393 22.5435 60 30.5 60C38.4565 60 46.0871 56.8393 51.7132 51.2132C57.3393 45.5871 60.5 37.9565 60.5 30C60.5 22.0435 57.3393 14.4129 51.7132 8.7868C46.0871 3.16071 38.4565 0 30.5 0C22.5435 0 14.9129 3.16071 9.2868 8.7868C3.66071 14.4129 0.5 22.0435 0.5 30Z" fill="#FAFAFA"/>
<rect width="13" height="13" transform="translate(7.5 15)" fill="#B4B4B4"/>
<path d="M9.9375 18.6562C9.9375 18.9795 10.0659 19.2895 10.2945 19.518C10.523 19.7466 10.833 19.875 11.1562 19.875C11.4795 19.875 11.7895 19.7466 12.018 19.518C12.2466 19.2895 12.375 18.9795 12.375 18.6562C12.375 18.333 12.2466 18.023 12.018 17.7945C11.7895 17.5659 11.4795 17.4375 11.1562 17.4375C10.833 17.4375 10.523 17.5659 10.2945 17.7945C10.0659 18.023 9.9375 18.333 9.9375 18.6562Z" fill="white"/>
<path d="M19.6507 17.055C19.6443 17.0296 19.638 17.0029 19.6304 16.9775C19.6228 16.9521 19.6151 16.9268 19.6062 16.9026C19.6024 16.8899 19.5974 16.8772 19.5936 16.8658C19.5796 16.829 19.5656 16.7922 19.5491 16.7566C19.5275 16.7097 19.5034 16.6627 19.478 16.6183C19.4653 16.5954 19.4514 16.5738 19.4374 16.5522C19.4298 16.5408 19.4234 16.5307 19.4158 16.5205C19.3942 16.4888 19.3714 16.457 19.3473 16.4266C19.3308 16.4063 19.3143 16.3859 19.2978 16.3669C19.2635 16.3275 19.2279 16.2907 19.1911 16.2552C18.9017 15.9797 18.5119 15.8096 18.0828 15.8096H9.92354C9.57822 15.8096 9.25703 15.92 8.99424 16.1079C8.98408 16.1155 8.97393 16.1231 8.9625 16.1308C8.93203 16.1536 8.90156 16.1777 8.87236 16.2031C8.86221 16.212 8.85332 16.2196 8.84316 16.2285C8.8292 16.2412 8.81523 16.2552 8.80127 16.2679L8.77334 16.2958C8.7416 16.3275 8.71113 16.3618 8.6832 16.3961C8.67559 16.4063 8.6667 16.4164 8.65908 16.4266C8.64004 16.4507 8.621 16.4761 8.60322 16.5015C8.48135 16.6754 8.39375 16.8734 8.34932 17.088C8.34805 17.0931 8.34678 17.0981 8.34678 17.102C8.3417 17.1286 8.33662 17.1553 8.33281 17.1819C8.32012 17.2657 8.3125 17.3508 8.3125 17.4371V25.5621C8.3125 25.6789 8.3252 25.7944 8.34932 25.9049C8.41279 26.207 8.56006 26.4787 8.76826 26.6933L8.80254 26.7275C8.82539 26.7504 8.84951 26.772 8.87363 26.7936C8.92187 26.8354 8.97393 26.8748 9.02725 26.9116C9.0374 26.9192 9.04883 26.9256 9.05898 26.9332C9.08057 26.9472 9.10342 26.9611 9.125 26.9738L9.15928 26.9929C9.18213 27.0056 9.20498 27.017 9.2291 27.0284C9.2875 27.0563 9.34844 27.0817 9.41064 27.1033C9.43604 27.1122 9.46016 27.1198 9.48555 27.1274C9.56172 27.149 9.64043 27.1655 9.72041 27.1757C9.7915 27.1858 9.86387 27.1909 9.9375 27.1909H18.0625C18.1082 27.1909 18.1526 27.1884 18.1971 27.1858C18.2961 27.1795 18.3926 27.163 18.4853 27.1389C18.5233 27.1287 18.5614 27.1173 18.5995 27.1046C18.6617 27.083 18.7227 27.0589 18.7811 27.0297C18.8039 27.0183 18.828 27.0068 18.8509 26.9941L18.8852 26.9751C18.9969 26.9104 19.101 26.8329 19.1949 26.744C19.2025 26.7377 19.2089 26.7301 19.2152 26.7237C19.2178 26.7212 19.2203 26.7199 19.2216 26.7174C19.2495 26.6895 19.2749 26.6615 19.3003 26.6323C19.3016 26.6311 19.3028 26.6285 19.3054 26.6272C19.3206 26.6095 19.3358 26.5917 19.3498 26.5739C19.3663 26.5536 19.3815 26.5333 19.3968 26.5117C19.4019 26.5041 19.4069 26.4965 19.412 26.4901C19.4158 26.4851 19.4196 26.4787 19.4234 26.4736C19.4298 26.4647 19.4349 26.4571 19.4399 26.4482C19.445 26.4394 19.4501 26.4317 19.4552 26.4229C19.4564 26.4203 19.459 26.4178 19.4603 26.4152L19.4869 26.3695C19.4971 26.3505 19.5072 26.3327 19.5174 26.3137C19.5339 26.2819 19.5491 26.2489 19.5631 26.2159C19.5694 26.2007 19.5758 26.1867 19.5809 26.1715C19.5923 26.1436 19.6024 26.1144 19.6126 26.0852C19.6189 26.0648 19.6266 26.0433 19.6316 26.0217C19.6393 25.9963 19.6456 25.9696 19.652 25.9442C19.6545 25.9328 19.657 25.9214 19.6596 25.9087C19.6646 25.8846 19.6697 25.8604 19.6735 25.8351C19.6735 25.8325 19.6748 25.83 19.6748 25.8262C19.6773 25.8059 19.6812 25.7868 19.6824 25.7665C19.685 25.7462 19.6862 25.7259 19.6888 25.7056C19.6913 25.6649 19.6938 25.6243 19.6938 25.5824V17.4168C19.6926 17.2924 19.6773 17.1718 19.6507 17.055ZM17.0494 20.9309C16.7282 20.6097 16.2039 20.6097 15.884 20.9309L12.8117 24.0031L11.3606 22.5533C11.0395 22.2321 10.5151 22.2321 10.1952 22.5533L9.125 23.6235V17.4371C9.125 17.2213 9.21006 17.0182 9.36494 16.8646C9.51855 16.7097 9.72168 16.6246 9.9375 16.6246H18.0625C18.2783 16.6246 18.4814 16.7097 18.6351 16.8646C18.7899 17.0182 18.875 17.2213 18.875 17.4371V22.7564L17.0494 20.9309Z" fill="white"/>
<rect width="13" height="13" transform="translate(23.5 15)" fill="#B4B4B4"/>
<path d="M25.9375 18.6562C25.9375 18.9795 26.0659 19.2895 26.2945 19.518C26.523 19.7466 26.833 19.875 27.1562 19.875C27.4795 19.875 27.7895 19.7466 28.018 19.518C28.2466 19.2895 28.375 18.9795 28.375 18.6562C28.375 18.333 28.2466 18.023 28.018 17.7945C27.7895 17.5659 27.4795 17.4375 27.1562 17.4375C26.833 17.4375 26.523 17.5659 26.2945 17.7945C26.0659 18.023 25.9375 18.333 25.9375 18.6562Z" fill="white"/>
<path d="M35.6507 17.055C35.6443 17.0296 35.638 17.0029 35.6304 16.9775C35.6228 16.9521 35.6151 16.9268 35.6062 16.9026C35.6024 16.8899 35.5974 16.8772 35.5936 16.8658C35.5796 16.829 35.5656 16.7922 35.5491 16.7566C35.5275 16.7097 35.5034 16.6627 35.478 16.6183C35.4653 16.5954 35.4514 16.5738 35.4374 16.5522C35.4298 16.5408 35.4234 16.5307 35.4158 16.5205C35.3942 16.4888 35.3714 16.457 35.3473 16.4266C35.3308 16.4063 35.3143 16.3859 35.2978 16.3669C35.2635 16.3275 35.2279 16.2907 35.1911 16.2552C34.9017 15.9797 34.5119 15.8096 34.0828 15.8096H25.9235C25.5782 15.8096 25.257 15.92 24.9942 16.1079C24.9841 16.1155 24.9739 16.1231 24.9625 16.1308C24.932 16.1536 24.9016 16.1777 24.8724 16.2031C24.8622 16.212 24.8533 16.2196 24.8432 16.2285C24.8292 16.2412 24.8152 16.2552 24.8013 16.2679L24.7733 16.2958C24.7416 16.3275 24.7111 16.3618 24.6832 16.3961C24.6756 16.4063 24.6667 16.4164 24.6591 16.4266C24.64 16.4507 24.621 16.4761 24.6032 16.5015C24.4813 16.6754 24.3938 16.8734 24.3493 17.088C24.348 17.0931 24.3468 17.0981 24.3468 17.102C24.3417 17.1286 24.3366 17.1553 24.3328 17.1819C24.3201 17.2657 24.3125 17.3508 24.3125 17.4371V25.5621C24.3125 25.6789 24.3252 25.7944 24.3493 25.9049C24.4128 26.207 24.5601 26.4787 24.7683 26.6933L24.8025 26.7275C24.8254 26.7504 24.8495 26.772 24.8736 26.7936C24.9219 26.8354 24.9739 26.8748 25.0272 26.9116C25.0374 26.9192 25.0488 26.9256 25.059 26.9332C25.0806 26.9472 25.1034 26.9611 25.125 26.9738L25.1593 26.9929C25.1821 27.0056 25.205 27.017 25.2291 27.0284C25.2875 27.0563 25.3484 27.0817 25.4106 27.1033C25.436 27.1122 25.4602 27.1198 25.4855 27.1274C25.5617 27.149 25.6404 27.1655 25.7204 27.1757C25.7915 27.1858 25.8639 27.1909 25.9375 27.1909H34.0625C34.1082 27.1909 34.1526 27.1884 34.1971 27.1858C34.2961 27.1795 34.3926 27.163 34.4853 27.1389C34.5233 27.1287 34.5614 27.1173 34.5995 27.1046C34.6617 27.083 34.7227 27.0589 34.7811 27.0297C34.8039 27.0183 34.828 27.0068 34.8509 26.9941L34.8852 26.9751C34.9969 26.9104 35.101 26.8329 35.1949 26.744C35.2025 26.7377 35.2089 26.7301 35.2152 26.7237C35.2178 26.7212 35.2203 26.7199 35.2216 26.7174C35.2495 26.6895 35.2749 26.6615 35.3003 26.6323C35.3016 26.6311 35.3028 26.6285 35.3054 26.6272C35.3206 26.6095 35.3358 26.5917 35.3498 26.5739C35.3663 26.5536 35.3815 26.5333 35.3968 26.5117C35.4019 26.5041 35.4069 26.4965 35.412 26.4901C35.4158 26.4851 35.4196 26.4787 35.4234 26.4736C35.4298 26.4647 35.4349 26.4571 35.4399 26.4482C35.445 26.4394 35.4501 26.4317 35.4552 26.4229C35.4564 26.4203 35.459 26.4178 35.4603 26.4152L35.4869 26.3695C35.4971 26.3505 35.5072 26.3327 35.5174 26.3137C35.5339 26.2819 35.5491 26.2489 35.5631 26.2159C35.5694 26.2007 35.5758 26.1867 35.5809 26.1715C35.5923 26.1436 35.6024 26.1144 35.6126 26.0852C35.6189 26.0648 35.6266 26.0433 35.6316 26.0217C35.6393 25.9963 35.6456 25.9696 35.652 25.9442C35.6545 25.9328 35.657 25.9214 35.6596 25.9087C35.6646 25.8846 35.6697 25.8604 35.6735 25.8351C35.6735 25.8325 35.6748 25.83 35.6748 25.8262C35.6773 25.8059 35.6812 25.7868 35.6824 25.7665C35.685 25.7462 35.6862 25.7259 35.6888 25.7056C35.6913 25.6649 35.6938 25.6243 35.6938 25.5824V17.4168C35.6926 17.2924 35.6773 17.1718 35.6507 17.055ZM33.0494 20.9309C32.7282 20.6097 32.2039 20.6097 31.884 20.9309L28.8117 24.0031L27.3606 22.5533C27.0395 22.2321 26.5151 22.2321 26.1952 22.5533L25.125 23.6235V17.4371C25.125 17.2213 25.2101 17.0182 25.3649 16.8646C25.5186 16.7097 25.7217 16.6246 25.9375 16.6246H34.0625C34.2783 16.6246 34.4814 16.7097 34.6351 16.8646C34.7899 17.0182 34.875 17.2213 34.875 17.4371V22.7564L33.0494 20.9309Z" fill="white"/>
<rect width="13" height="13" transform="translate(39.5 15)" fill="#B4B4B4"/>
<path d="M41.9375 18.6562C41.9375 18.9795 42.0659 19.2895 42.2945 19.518C42.523 19.7466 42.833 19.875 43.1562 19.875C43.4795 19.875 43.7895 19.7466 44.018 19.518C44.2466 19.2895 44.375 18.9795 44.375 18.6562C44.375 18.333 44.2466 18.023 44.018 17.7945C43.7895 17.5659 43.4795 17.4375 43.1562 17.4375C42.833 17.4375 42.523 17.5659 42.2945 17.7945C42.0659 18.023 41.9375 18.333 41.9375 18.6562Z" fill="white"/>
<path d="M51.6507 17.055C51.6443 17.0296 51.638 17.0029 51.6304 16.9775C51.6228 16.9521 51.6151 16.9268 51.6062 16.9026C51.6024 16.8899 51.5974 16.8772 51.5936 16.8658C51.5796 16.829 51.5656 16.7922 51.5491 16.7566C51.5275 16.7097 51.5034 16.6627 51.478 16.6183C51.4653 16.5954 51.4514 16.5738 51.4374 16.5522C51.4298 16.5408 51.4234 16.5307 51.4158 16.5205C51.3942 16.4888 51.3714 16.457 51.3473 16.4266C51.3308 16.4063 51.3143 16.3859 51.2978 16.3669C51.2635 16.3275 51.2279 16.2907 51.1911 16.2552C50.9017 15.9797 50.5119 15.8096 50.0828 15.8096H41.9235C41.5782 15.8096 41.257 15.92 40.9942 16.1079C40.9841 16.1155 40.9739 16.1231 40.9625 16.1308C40.932 16.1536 40.9016 16.1777 40.8724 16.2031C40.8622 16.212 40.8533 16.2196 40.8432 16.2285C40.8292 16.2412 40.8152 16.2552 40.8013 16.2679L40.7733 16.2958C40.7416 16.3275 40.7111 16.3618 40.6832 16.3961C40.6756 16.4063 40.6667 16.4164 40.6591 16.4266C40.64 16.4507 40.621 16.4761 40.6032 16.5015C40.4813 16.6754 40.3938 16.8734 40.3493 17.088C40.348 17.0931 40.3468 17.0981 40.3468 17.102C40.3417 17.1286 40.3366 17.1553 40.3328 17.1819C40.3201 17.2657 40.3125 17.3508 40.3125 17.4371V25.5621C40.3125 25.6789 40.3252 25.7944 40.3493 25.9049C40.4128 26.207 40.5601 26.4787 40.7683 26.6933L40.8025 26.7275C40.8254 26.7504 40.8495 26.772 40.8736 26.7936C40.9219 26.8354 40.9739 26.8748 41.0272 26.9116C41.0374 26.9192 41.0488 26.9256 41.059 26.9332C41.0806 26.9472 41.1034 26.9611 41.125 26.9738L41.1593 26.9929C41.1821 27.0056 41.205 27.017 41.2291 27.0284C41.2875 27.0563 41.3484 27.0817 41.4106 27.1033C41.436 27.1122 41.4602 27.1198 41.4855 27.1274C41.5617 27.149 41.6404 27.1655 41.7204 27.1757C41.7915 27.1858 41.8639 27.1909 41.9375 27.1909H50.0625C50.1082 27.1909 50.1526 27.1884 50.1971 27.1858C50.2961 27.1795 50.3926 27.163 50.4853 27.1389C50.5233 27.1287 50.5614 27.1173 50.5995 27.1046C50.6617 27.083 50.7227 27.0589 50.7811 27.0297C50.8039 27.0183 50.828 27.0068 50.8509 26.9941L50.8852 26.9751C50.9969 26.9104 51.101 26.8329 51.1949 26.744C51.2025 26.7377 51.2089 26.7301 51.2152 26.7237C51.2178 26.7212 51.2203 26.7199 51.2216 26.7174C51.2495 26.6895 51.2749 26.6615 51.3003 26.6323C51.3016 26.6311 51.3028 26.6285 51.3054 26.6272C51.3206 26.6095 51.3358 26.5917 51.3498 26.5739C51.3663 26.5536 51.3815 26.5333 51.3968 26.5117C51.4019 26.5041 51.4069 26.4965 51.412 26.4901C51.4158 26.4851 51.4196 26.4787 51.4234 26.4736C51.4298 26.4647 51.4349 26.4571 51.4399 26.4482C51.445 26.4394 51.4501 26.4317 51.4552 26.4229C51.4564 26.4203 51.459 26.4178 51.4603 26.4152L51.4869 26.3695C51.4971 26.3505 51.5072 26.3327 51.5174 26.3137C51.5339 26.2819 51.5491 26.2489 51.5631 26.2159C51.5694 26.2007 51.5758 26.1867 51.5809 26.1715C51.5923 26.1436 51.6024 26.1144 51.6126 26.0852C51.6189 26.0648 51.6266 26.0433 51.6316 26.0217C51.6393 25.9963 51.6456 25.9696 51.652 25.9442C51.6545 25.9328 51.657 25.9214 51.6596 25.9087C51.6646 25.8846 51.6697 25.8604 51.6735 25.8351C51.6735 25.8325 51.6748 25.83 51.6748 25.8262C51.6773 25.8059 51.6812 25.7868 51.6824 25.7665C51.685 25.7462 51.6862 25.7259 51.6888 25.7056C51.6913 25.6649 51.6938 25.6243 51.6938 25.5824V17.4168C51.6926 17.2924 51.6773 17.1718 51.6507 17.055ZM49.0494 20.9309C48.7282 20.6097 48.2039 20.6097 47.884 20.9309L44.8117 24.0031L43.3606 22.5533C43.0395 22.2321 42.5151 22.2321 42.1952 22.5533L41.125 23.6235V17.4371C41.125 17.2213 41.2101 17.0182 41.3649 16.8646C41.5186 16.7097 41.7217 16.6246 41.9375 16.6246H50.0625C50.2783 16.6246 50.4814 16.7097 50.6351 16.8646C50.7899 17.0182 50.875 17.2213 50.875 17.4371V22.7564L49.0494 20.9309Z" fill="white"/>
<rect width="13" height="13" transform="translate(39.5 31)" fill="#B4B4B4"/>
<path d="M41.9375 34.6562C41.9375 34.9795 42.0659 35.2895 42.2945 35.518C42.523 35.7466 42.833 35.875 43.1562 35.875C43.4795 35.875 43.7895 35.7466 44.018 35.518C44.2466 35.2895 44.375 34.9795 44.375 34.6562C44.375 34.333 44.2466 34.023 44.018 33.7945C43.7895 33.5659 43.4795 33.4375 43.1562 33.4375C42.833 33.4375 42.523 33.5659 42.2945 33.7945C42.0659 34.023 41.9375 34.333 41.9375 34.6562Z" fill="white"/>
<path d="M51.6507 33.055C51.6443 33.0296 51.638 33.0029 51.6304 32.9775C51.6228 32.9521 51.6151 32.9268 51.6062 32.9026C51.6024 32.8899 51.5974 32.8772 51.5936 32.8658C51.5796 32.829 51.5656 32.7922 51.5491 32.7566C51.5275 32.7097 51.5034 32.6627 51.478 32.6183C51.4653 32.5954 51.4514 32.5738 51.4374 32.5522C51.4298 32.5408 51.4234 32.5307 51.4158 32.5205C51.3942 32.4888 51.3714 32.457 51.3473 32.4266C51.3308 32.4063 51.3143 32.3859 51.2978 32.3669C51.2635 32.3275 51.2279 32.2907 51.1911 32.2552C50.9017 31.9797 50.5119 31.8096 50.0828 31.8096H41.9235C41.5782 31.8096 41.257 31.92 40.9942 32.1079C40.9841 32.1155 40.9739 32.1231 40.9625 32.1308C40.932 32.1536 40.9016 32.1777 40.8724 32.2031C40.8622 32.212 40.8533 32.2196 40.8432 32.2285C40.8292 32.2412 40.8152 32.2552 40.8013 32.2679L40.7733 32.2958C40.7416 32.3275 40.7111 32.3618 40.6832 32.3961C40.6756 32.4063 40.6667 32.4164 40.6591 32.4266C40.64 32.4507 40.621 32.4761 40.6032 32.5015C40.4813 32.6754 40.3938 32.8734 40.3493 33.088C40.348 33.0931 40.3468 33.0981 40.3468 33.102C40.3417 33.1286 40.3366 33.1553 40.3328 33.1819C40.3201 33.2657 40.3125 33.3508 40.3125 33.4371V41.5621C40.3125 41.6789 40.3252 41.7944 40.3493 41.9049C40.4128 42.207 40.5601 42.4787 40.7683 42.6933L40.8025 42.7275C40.8254 42.7504 40.8495 42.772 40.8736 42.7936C40.9219 42.8354 40.9739 42.8748 41.0272 42.9116C41.0374 42.9192 41.0488 42.9256 41.059 42.9332C41.0806 42.9472 41.1034 42.9611 41.125 42.9738L41.1593 42.9929C41.1821 43.0056 41.205 43.017 41.2291 43.0284C41.2875 43.0563 41.3484 43.0817 41.4106 43.1033C41.436 43.1122 41.4602 43.1198 41.4855 43.1274C41.5617 43.149 41.6404 43.1655 41.7204 43.1757C41.7915 43.1858 41.8639 43.1909 41.9375 43.1909H50.0625C50.1082 43.1909 50.1526 43.1884 50.1971 43.1858C50.2961 43.1795 50.3926 43.163 50.4853 43.1389C50.5233 43.1287 50.5614 43.1173 50.5995 43.1046C50.6617 43.083 50.7227 43.0589 50.7811 43.0297C50.8039 43.0183 50.828 43.0068 50.8509 42.9941L50.8852 42.9751C50.9969 42.9104 51.101 42.8329 51.1949 42.744C51.2025 42.7377 51.2089 42.7301 51.2152 42.7237C51.2178 42.7212 51.2203 42.7199 51.2216 42.7174C51.2495 42.6895 51.2749 42.6615 51.3003 42.6323C51.3016 42.6311 51.3028 42.6285 51.3054 42.6272C51.3206 42.6095 51.3358 42.5917 51.3498 42.5739C51.3663 42.5536 51.3815 42.5333 51.3968 42.5117C51.4019 42.5041 51.4069 42.4965 51.412 42.4901C51.4158 42.4851 51.4196 42.4787 51.4234 42.4736C51.4298 42.4647 51.4349 42.4571 51.4399 42.4482C51.445 42.4394 51.4501 42.4317 51.4552 42.4229C51.4564 42.4203 51.459 42.4178 51.4603 42.4152L51.4869 42.3695C51.4971 42.3505 51.5072 42.3327 51.5174 42.3137C51.5339 42.2819 51.5491 42.2489 51.5631 42.2159C51.5694 42.2007 51.5758 42.1867 51.5809 42.1715C51.5923 42.1436 51.6024 42.1144 51.6126 42.0852C51.6189 42.0648 51.6266 42.0433 51.6316 42.0217C51.6393 41.9963 51.6456 41.9696 51.652 41.9442C51.6545 41.9328 51.657 41.9214 51.6596 41.9087C51.6646 41.8846 51.6697 41.8604 51.6735 41.8351C51.6735 41.8325 51.6748 41.83 51.6748 41.8262C51.6773 41.8059 51.6812 41.7868 51.6824 41.7665C51.685 41.7462 51.6862 41.7259 51.6888 41.7056C51.6913 41.6649 51.6938 41.6243 51.6938 41.5824V33.4168C51.6926 33.2924 51.6773 33.1718 51.6507 33.055ZM49.0494 36.9309C48.7282 36.6097 48.2039 36.6097 47.884 36.9309L44.8117 40.0031L43.3606 38.5533C43.0395 38.2321 42.5151 38.2321 42.1952 38.5533L41.125 39.6235V33.4371C41.125 33.2213 41.2101 33.0182 41.3649 32.8646C41.5186 32.7097 41.7217 32.6246 41.9375 32.6246H50.0625C50.2783 32.6246 50.4814 32.7097 50.6351 32.8646C50.7899 33.0182 50.875 33.2213 50.875 33.4371V38.7564L49.0494 36.9309Z" fill="white"/>
<rect width="13" height="13" transform="translate(23.5 31)" fill="#B4B4B4"/>
<path d="M25.9375 34.6562C25.9375 34.9795 26.0659 35.2895 26.2945 35.518C26.523 35.7466 26.833 35.875 27.1562 35.875C27.4795 35.875 27.7895 35.7466 28.018 35.518C28.2466 35.2895 28.375 34.9795 28.375 34.6562C28.375 34.333 28.2466 34.023 28.018 33.7945C27.7895 33.5659 27.4795 33.4375 27.1562 33.4375C26.833 33.4375 26.523 33.5659 26.2945 33.7945C26.0659 34.023 25.9375 34.333 25.9375 34.6562Z" fill="white"/>
<path d="M35.6507 33.055C35.6443 33.0296 35.638 33.0029 35.6304 32.9775C35.6228 32.9521 35.6151 32.9268 35.6062 32.9026C35.6024 32.8899 35.5974 32.8772 35.5936 32.8658C35.5796 32.829 35.5656 32.7922 35.5491 32.7566C35.5275 32.7097 35.5034 32.6627 35.478 32.6183C35.4653 32.5954 35.4514 32.5738 35.4374 32.5522C35.4298 32.5408 35.4234 32.5307 35.4158 32.5205C35.3942 32.4888 35.3714 32.457 35.3473 32.4266C35.3308 32.4063 35.3143 32.3859 35.2978 32.3669C35.2635 32.3275 35.2279 32.2907 35.1911 32.2552C34.9017 31.9797 34.5119 31.8096 34.0828 31.8096H25.9235C25.5782 31.8096 25.257 31.92 24.9942 32.1079C24.9841 32.1155 24.9739 32.1231 24.9625 32.1308C24.932 32.1536 24.9016 32.1777 24.8724 32.2031C24.8622 32.212 24.8533 32.2196 24.8432 32.2285C24.8292 32.2412 24.8152 32.2552 24.8013 32.2679L24.7733 32.2958C24.7416 32.3275 24.7111 32.3618 24.6832 32.3961C24.6756 32.4063 24.6667 32.4164 24.6591 32.4266C24.64 32.4507 24.621 32.4761 24.6032 32.5015C24.4813 32.6754 24.3938 32.8734 24.3493 33.088C24.348 33.0931 24.3468 33.0981 24.3468 33.102C24.3417 33.1286 24.3366 33.1553 24.3328 33.1819C24.3201 33.2657 24.3125 33.3508 24.3125 33.4371V41.5621C24.3125 41.6789 24.3252 41.7944 24.3493 41.9049C24.4128 42.207 24.5601 42.4787 24.7683 42.6933L24.8025 42.7275C24.8254 42.7504 24.8495 42.772 24.8736 42.7936C24.9219 42.8354 24.9739 42.8748 25.0272 42.9116C25.0374 42.9192 25.0488 42.9256 25.059 42.9332C25.0806 42.9472 25.1034 42.9611 25.125 42.9738L25.1593 42.9929C25.1821 43.0056 25.205 43.017 25.2291 43.0284C25.2875 43.0563 25.3484 43.0817 25.4106 43.1033C25.436 43.1122 25.4602 43.1198 25.4855 43.1274C25.5617 43.149 25.6404 43.1655 25.7204 43.1757C25.7915 43.1858 25.8639 43.1909 25.9375 43.1909H34.0625C34.1082 43.1909 34.1526 43.1884 34.1971 43.1858C34.2961 43.1795 34.3926 43.163 34.4853 43.1389C34.5233 43.1287 34.5614 43.1173 34.5995 43.1046C34.6617 43.083 34.7227 43.0589 34.7811 43.0297C34.8039 43.0183 34.828 43.0068 34.8509 42.9941L34.8852 42.9751C34.9969 42.9104 35.101 42.8329 35.1949 42.744C35.2025 42.7377 35.2089 42.7301 35.2152 42.7237C35.2178 42.7212 35.2203 42.7199 35.2216 42.7174C35.2495 42.6895 35.2749 42.6615 35.3003 42.6323C35.3016 42.6311 35.3028 42.6285 35.3054 42.6272C35.3206 42.6095 35.3358 42.5917 35.3498 42.5739C35.3663 42.5536 35.3815 42.5333 35.3968 42.5117C35.4019 42.5041 35.4069 42.4965 35.412 42.4901C35.4158 42.4851 35.4196 42.4787 35.4234 42.4736C35.4298 42.4647 35.4349 42.4571 35.4399 42.4482C35.445 42.4394 35.4501 42.4317 35.4552 42.4229C35.4564 42.4203 35.459 42.4178 35.4603 42.4152L35.4869 42.3695C35.4971 42.3505 35.5072 42.3327 35.5174 42.3137C35.5339 42.2819 35.5491 42.2489 35.5631 42.2159C35.5694 42.2007 35.5758 42.1867 35.5809 42.1715C35.5923 42.1436 35.6024 42.1144 35.6126 42.0852C35.6189 42.0648 35.6266 42.0433 35.6316 42.0217C35.6393 41.9963 35.6456 41.9696 35.652 41.9442C35.6545 41.9328 35.657 41.9214 35.6596 41.9087C35.6646 41.8846 35.6697 41.8604 35.6735 41.8351C35.6735 41.8325 35.6748 41.83 35.6748 41.8262C35.6773 41.8059 35.6812 41.7868 35.6824 41.7665C35.685 41.7462 35.6862 41.7259 35.6888 41.7056C35.6913 41.6649 35.6938 41.6243 35.6938 41.5824V33.4168C35.6926 33.2924 35.6773 33.1718 35.6507 33.055ZM33.0494 36.9309C32.7282 36.6097 32.2039 36.6097 31.884 36.9309L28.8117 40.0031L27.3606 38.5533C27.0395 38.2321 26.5151 38.2321 26.1952 38.5533L25.125 39.6235V33.4371C25.125 33.2213 25.2101 33.0182 25.3649 32.8646C25.5186 32.7097 25.7217 32.6246 25.9375 32.6246H34.0625C34.2783 32.6246 34.4814 32.7097 34.6351 32.8646C34.7899 33.0182 34.875 33.2213 34.875 33.4371V38.7564L33.0494 36.9309Z" fill="white"/>
<rect width="13" height="13" transform="translate(7.5 31)" fill="#B4B4B4"/>
<path d="M9.9375 34.6562C9.9375 34.9795 10.0659 35.2895 10.2945 35.518C10.523 35.7466 10.833 35.875 11.1562 35.875C11.4795 35.875 11.7895 35.7466 12.018 35.518C12.2466 35.2895 12.375 34.9795 12.375 34.6562C12.375 34.333 12.2466 34.023 12.018 33.7945C11.7895 33.5659 11.4795 33.4375 11.1562 33.4375C10.833 33.4375 10.523 33.5659 10.2945 33.7945C10.0659 34.023 9.9375 34.333 9.9375 34.6562Z" fill="white"/>
<path d="M19.6507 33.055C19.6443 33.0296 19.638 33.0029 19.6304 32.9775C19.6228 32.9521 19.6151 32.9268 19.6062 32.9026C19.6024 32.8899 19.5974 32.8772 19.5936 32.8658C19.5796 32.829 19.5656 32.7922 19.5491 32.7566C19.5275 32.7097 19.5034 32.6627 19.478 32.6183C19.4653 32.5954 19.4514 32.5738 19.4374 32.5522C19.4298 32.5408 19.4234 32.5307 19.4158 32.5205C19.3942 32.4888 19.3714 32.457 19.3473 32.4266C19.3308 32.4063 19.3143 32.3859 19.2978 32.3669C19.2635 32.3275 19.2279 32.2907 19.1911 32.2552C18.9017 31.9797 18.5119 31.8096 18.0828 31.8096H9.92354C9.57822 31.8096 9.25703 31.92 8.99424 32.1079C8.98408 32.1155 8.97393 32.1231 8.9625 32.1308C8.93203 32.1536 8.90156 32.1777 8.87236 32.2031C8.86221 32.212 8.85332 32.2196 8.84316 32.2285C8.8292 32.2412 8.81523 32.2552 8.80127 32.2679L8.77334 32.2958C8.7416 32.3275 8.71113 32.3618 8.6832 32.3961C8.67559 32.4063 8.6667 32.4164 8.65908 32.4266C8.64004 32.4507 8.621 32.4761 8.60322 32.5015C8.48135 32.6754 8.39375 32.8734 8.34932 33.088C8.34805 33.0931 8.34678 33.0981 8.34678 33.102C8.3417 33.1286 8.33662 33.1553 8.33281 33.1819C8.32012 33.2657 8.3125 33.3508 8.3125 33.4371V41.5621C8.3125 41.6789 8.3252 41.7944 8.34932 41.9049C8.41279 42.207 8.56006 42.4787 8.76826 42.6933L8.80254 42.7275C8.82539 42.7504 8.84951 42.772 8.87363 42.7936C8.92187 42.8354 8.97393 42.8748 9.02725 42.9116C9.0374 42.9192 9.04883 42.9256 9.05898 42.9332C9.08057 42.9472 9.10342 42.9611 9.125 42.9738L9.15928 42.9929C9.18213 43.0056 9.20498 43.017 9.2291 43.0284C9.2875 43.0563 9.34844 43.0817 9.41064 43.1033C9.43604 43.1122 9.46016 43.1198 9.48555 43.1274C9.56172 43.149 9.64043 43.1655 9.72041 43.1757C9.7915 43.1858 9.86387 43.1909 9.9375 43.1909H18.0625C18.1082 43.1909 18.1526 43.1884 18.1971 43.1858C18.2961 43.1795 18.3926 43.163 18.4853 43.1389C18.5233 43.1287 18.5614 43.1173 18.5995 43.1046C18.6617 43.083 18.7227 43.0589 18.7811 43.0297C18.8039 43.0183 18.828 43.0068 18.8509 42.9941L18.8852 42.9751C18.9969 42.9104 19.101 42.8329 19.1949 42.744C19.2025 42.7377 19.2089 42.7301 19.2152 42.7237C19.2178 42.7212 19.2203 42.7199 19.2216 42.7174C19.2495 42.6895 19.2749 42.6615 19.3003 42.6323C19.3016 42.6311 19.3028 42.6285 19.3054 42.6272C19.3206 42.6095 19.3358 42.5917 19.3498 42.5739C19.3663 42.5536 19.3815 42.5333 19.3968 42.5117C19.4019 42.5041 19.4069 42.4965 19.412 42.4901C19.4158 42.4851 19.4196 42.4787 19.4234 42.4736C19.4298 42.4647 19.4349 42.4571 19.4399 42.4482C19.445 42.4394 19.4501 42.4317 19.4552 42.4229C19.4564 42.4203 19.459 42.4178 19.4603 42.4152L19.4869 42.3695C19.4971 42.3505 19.5072 42.3327 19.5174 42.3137C19.5339 42.2819 19.5491 42.2489 19.5631 42.2159C19.5694 42.2007 19.5758 42.1867 19.5809 42.1715C19.5923 42.1436 19.6024 42.1144 19.6126 42.0852C19.6189 42.0648 19.6266 42.0433 19.6316 42.0217C19.6393 41.9963 19.6456 41.9696 19.652 41.9442C19.6545 41.9328 19.657 41.9214 19.6596 41.9087C19.6646 41.8846 19.6697 41.8604 19.6735 41.8351C19.6735 41.8325 19.6748 41.83 19.6748 41.8262C19.6773 41.8059 19.6812 41.7868 19.6824 41.7665C19.685 41.7462 19.6862 41.7259 19.6888 41.7056C19.6913 41.6649 19.6938 41.6243 19.6938 41.5824V33.4168C19.6926 33.2924 19.6773 33.1718 19.6507 33.055ZM17.0494 36.9309C16.7282 36.6097 16.2039 36.6097 15.884 36.9309L12.8117 40.0031L11.3606 38.5533C11.0395 38.2321 10.5151 38.2321 10.1952 38.5533L9.125 39.6235V33.4371C9.125 33.2213 9.21006 33.0182 9.36494 32.8646C9.51855 32.7097 9.72168 32.6246 9.9375 32.6246H18.0625C18.2783 32.6246 18.4814 32.7097 18.6351 32.8646C18.7899 33.0182 18.875 33.2213 18.875 33.4371V38.7564L17.0494 36.9309Z" fill="white"/>
</g>
<defs>
<clipPath id="clip0_1941_977">
<rect width="60" height="60" fill="white" transform="translate(0.5)"/>
</clipPath>
</defs>
</svg>
