<?xml version="1.0" standalone="no"?><!DOCTYPE svg PUBLIC "-//W3C//DTD SVG 1.1//EN" "http://www.w3.org/Graphics/SVG/1.1/DTD/svg11.dtd"><svg t="1733518542237" class="icon" viewBox="0 0 1024 1024" version="1.1" xmlns="http://www.w3.org/2000/svg" p-id="2905" xmlns:xlink="http://www.w3.org/1999/xlink" width="200" height="200"><path d="M67.043226 726.78912c50.16576-284.59008 179.1232-390.20544 331.74016-432.5888 191.0016-53.1968 357.72416-15.0528 518.81984-90.86464 97.3312-45.80352 93.31712 36.41344 91.60704 49.62304-24.64768 190.30016-125.36832 371.57376-340.66944 457.6256-234.8288 93.80352-466.5856-79.87712-634.71104 193.34144a6.8096 6.8096 0 0 1-5.7856 3.2512H6.821786a6.79424 6.79424 0 0 1-6.05696-9.856c63.08352-125.28128 154.02496-233.14944 270.12608-319.14496 104.61696-77.40416 229.7856-137.50272 373.376-185.40032 11.6224-3.87584 6.71744-21.2992-5.21728-18.51904-110.1056 25.6512-209.59744 59.1616-301.952 111.80544-96.512 55.00416-185.2928 131.03104-270.0544 240.72704z" fill="#f88d07" p-id="2906"></path></svg>