<svg width="29" height="30" viewBox="0 0 29 30" fill="none" xmlns="http://www.w3.org/2000/svg">
<g clip-path="url(#clip0_1954_1526)">
<path d="M0.0078125 14.9889C0.0078125 18.8316 1.53432 22.517 4.25152 25.2342C6.96873 27.9514 10.654 29.4779 14.4967 29.4779C18.3394 29.4779 22.0248 27.9514 24.742 25.2342C27.4592 22.517 28.9857 18.8316 28.9857 14.9889C28.9857 11.1462 27.4592 7.46091 24.742 4.74371C22.0248 2.02651 18.3394 0.5 14.4967 0.5C10.654 0.5 6.96873 2.02651 4.25152 4.74371C1.53432 7.46091 0.0078125 11.1462 0.0078125 14.9889Z" fill="#3A5A98"/>
<path d="M24.7493 4.76465C30.4076 10.4229 30.4079 19.5972 24.7491 25.2559C19.0906 30.9142 9.91609 30.9142 4.25781 25.2559L24.7493 4.76465Z" fill="#345387"/>
<path d="M28.8918 16.6207L18.411 6.13965L12.9693 11.5813L13.2935 11.9055L10.1953 15.0034L12.7312 17.5393L12.3976 17.8727L15.143 20.6181L11.978 23.7831L17.3849 29.19C23.482 27.9561 28.1883 22.894 28.8918 16.6207Z" fill="#2E4D72"/>
<path d="M11.9677 9.60677V12.0367H10.1875V15.0081H11.9677V23.8374H15.6246V15.0081H18.0785C18.0785 15.0081 18.3084 13.583 18.4196 12.0255H15.6385V9.99362C15.6385 9.69023 16.037 9.28185 16.4312 9.28185H18.4237V6.18848H15.7147C11.8771 6.18829 11.9677 9.1625 11.9677 9.60677Z" fill="white"/>
</g>
<defs>
<clipPath id="clip0_1954_1526">
<rect width="29" height="29" fill="white" transform="translate(0 0.5)"/>
</clipPath>
</defs>
</svg>
