<svg width="28" height="28" viewBox="0 0 28 28" fill="none" xmlns="http://www.w3.org/2000/svg">
<path d="M23.2384 1.40039H4.75844C2.90274 1.40039 1.39844 2.90469 1.39844 4.76039V23.2404C1.39844 25.0961 2.90274 26.6004 4.75844 26.6004H23.2384C25.0941 26.6004 26.5984 25.0961 26.5984 23.2404V4.76039C26.5984 2.90469 25.0941 1.40039 23.2384 1.40039ZM20.6776 10.604C20.6853 10.7508 20.6892 10.8977 20.6895 11.0447C20.6895 15.5608 17.2217 20.7665 10.8825 20.7665C8.93702 20.7665 7.12486 20.1999 5.59844 19.2336C5.8711 19.2663 6.14549 19.2824 6.4201 19.2819C7.96998 19.2844 9.47644 18.77 10.7012 17.8202C9.1935 17.7905 7.9209 16.8007 7.48242 15.4469C7.69228 15.4844 7.90942 15.5097 8.13174 15.5097C8.43788 15.5096 8.7426 15.4682 9.03768 15.3867C7.4624 15.0728 6.27366 13.693 6.27366 12.0359V11.9959C6.7393 12.2479 7.2713 12.405 7.83648 12.4223C6.91066 11.8072 6.30348 10.7635 6.30348 9.57765C6.30348 8.95381 6.47162 8.36259 6.7701 7.85761C7.63985 8.91525 8.72113 9.77934 9.94454 10.3944C11.1679 11.0095 12.5064 11.362 13.8741 11.4293C13.8144 11.1738 13.7842 10.9122 13.7841 10.6498C13.7841 8.76369 15.327 7.23419 17.231 7.23419C18.2221 7.23419 19.1167 7.64649 19.7436 8.31163C20.5293 8.16043 21.2675 7.87343 21.9338 7.48297C21.6767 8.27943 21.1292 8.95367 20.4167 9.37633C21.1173 9.29023 21.781 9.10781 22.3986 8.83425C21.9381 9.52455 21.3547 10.1244 20.6776 10.604Z" fill="#03A9F4"/>
</svg>
