<svg width="28" height="28" viewBox="0 0 28 28" fill="none" xmlns="http://www.w3.org/2000/svg">
<path d="M14 19.25C11.1016 19.25 8.75 16.8984 8.75 14C8.75 11.1016 11.1016 8.75 14 8.75C16.8984 8.75 19.25 11.1016 19.25 14C19.25 16.8984 16.8984 19.25 14 19.25ZM14 10.5C12.075 10.5 10.5 12.075 10.5 14C10.5 15.925 12.075 17.5 14 17.5C15.925 17.5 17.5 15.925 17.5 14C17.5 12.075 15.925 10.5 14 10.5Z" fill="url(#paint0_linear_1954_1533)"/>
<path d="M18.8125 24.9375H9.1875C5.80781 24.9375 3.0625 22.1922 3.0625 18.8125V9.1875C3.0625 5.80781 5.80781 3.0625 9.1875 3.0625H18.8125C22.1922 3.0625 24.9375 5.80781 24.9375 9.1875V18.8125C24.9375 22.1922 22.1922 24.9375 18.8125 24.9375ZM9.1875 4.8125C6.77031 4.8125 4.8125 6.77031 4.8125 9.1875V18.8125C4.8125 21.2297 6.77031 23.1875 9.1875 23.1875H18.8125C21.2297 23.1875 23.1875 21.2297 23.1875 18.8125V9.1875C23.1875 6.77031 21.2297 4.8125 18.8125 4.8125H9.1875Z" fill="url(#paint1_linear_1954_1533)"/>
<path d="M18.375 8.3125C18.375 8.6606 18.5133 8.99444 18.7594 9.24058C19.0056 9.48672 19.3394 9.625 19.6875 9.625C20.0356 9.625 20.3694 9.48672 20.6156 9.24058C20.8617 8.99444 21 8.6606 21 8.3125C21 7.9644 20.8617 7.63056 20.6156 7.38442C20.3694 7.13828 20.0356 7 19.6875 7C19.3394 7 19.0056 7.13828 18.7594 7.38442C18.5133 7.63056 18.375 7.9644 18.375 8.3125Z" fill="black"/>
<defs>
<linearGradient id="paint0_linear_1954_1533" x1="14" y1="8.75" x2="14" y2="19.25" gradientUnits="userSpaceOnUse">
<stop stop-color="#FF7B7B"/>
<stop offset="0.47" stop-color="#FC32A1"/>
<stop offset="0.875" stop-color="#FC4D32"/>
</linearGradient>
<linearGradient id="paint1_linear_1954_1533" x1="14" y1="3.0625" x2="14" y2="24.9375" gradientUnits="userSpaceOnUse">
<stop stop-color="#FF7B7B"/>
<stop offset="0.47" stop-color="#FC32A1"/>
<stop offset="0.875" stop-color="#FC4D32"/>
</linearGradient>
</defs>
</svg>
