<svg width="230" height="230" viewBox="0 0 230 230" fill="none" xmlns="http://www.w3.org/2000/svg">
<circle cx="115" cy="115" r="115" fill="url(#paint0_radial_2517_721)" fill-opacity="0.4"/>
<circle cx="115" cy="115" r="83" fill="url(#paint1_radial_2517_721)" fill-opacity="0.5"/>
<path d="M95.3906 112.121C95.3906 117.187 97.4031 122.046 100.985 125.628C104.568 129.21 109.426 131.223 114.492 131.223C119.558 131.223 124.417 129.21 127.999 125.628C131.581 122.046 133.594 117.187 133.594 112.121C133.594 107.055 131.581 102.196 127.999 98.6142C124.417 95.032 119.558 93.0195 114.492 93.0195C109.426 93.0195 104.568 95.032 100.985 98.6142C97.4031 102.196 95.3906 107.055 95.3906 112.121Z" fill="#D26D6F"/>
<path d="M81.1445 110.586C81.1562 110.422 81.168 110.27 81.1797 110.105C82.5859 92.8203 97.2812 79.2734 114.648 79.2734C132.402 79.2734 146.969 93.125 148.152 110.586H150.496C149.324 91.8359 133.703 76.9297 114.648 76.9297C96.0742 76.9297 80.3477 91.4141 78.8477 109.906C78.8242 110.129 78.8125 110.352 78.8008 110.574H81.1445V110.586ZM148.012 116.621C146.137 133.367 131.887 146.434 114.648 146.434C97.4102 146.434 83.1719 133.66 81.2852 116.621H78.9297C80.8398 134.973 96.1211 148.777 114.648 148.777C133.188 148.777 148.48 134.668 150.367 116.621H148.012Z" fill="#FF7072"/>
<path d="M114.648 86.7852C100.27 86.7852 88.5742 98.4805 88.5742 112.859C88.5742 127.238 100.27 138.934 114.648 138.934C129.027 138.934 140.723 127.238 140.723 112.859C140.711 98.4805 129.016 86.7852 114.648 86.7852ZM114.648 134.527C102.684 134.527 92.9805 124.824 92.9805 112.859C92.9805 100.895 102.684 91.1914 114.648 91.1914C126.613 91.1914 136.316 100.895 136.316 112.859C136.316 124.824 126.613 134.527 114.648 134.527Z" fill="#FF4F52"/>
<path d="M114.648 127.848C106.387 127.848 99.6602 121.121 99.6602 112.859C99.6602 104.598 106.387 97.8711 114.648 97.8711C122.91 97.8711 129.637 104.598 129.637 112.859C129.637 121.121 122.91 127.848 114.648 127.848ZM114.648 103.32C109.387 103.32 105.109 107.598 105.109 112.859C105.109 118.121 109.387 122.398 114.648 122.398C119.91 122.398 124.188 118.121 124.188 112.859C124.188 107.598 119.898 103.32 114.648 103.32Z" fill="#FF2A2E"/>
<path d="M108.767 134.07C108.767 128.035 108.744 121.988 108.779 115.953C108.802 111.723 110.888 109.274 114.427 109.25C118.189 109.227 120.755 111.899 120.779 116.024C120.826 122.75 120.779 129.477 120.802 136.203C120.814 139.777 121.623 140.656 125.431 140.996C133.084 141.664 140.736 142.297 148.388 142.871C153.228 143.235 155.15 145.274 154.201 149.692C152.279 158.645 150.169 167.574 148.212 176.516C147.685 178.953 146.08 180.09 143.56 180.195C140.103 180.348 136.634 180.43 133.166 180.442C123.416 180.477 113.666 180.465 103.916 180.442C100.13 180.442 98.9117 179.656 97.7281 176.375C94.4586 167.317 91.2242 158.246 87.9781 149.188C87.0289 146.551 88.4468 143.645 91.189 142.625C93.7906 141.664 97.3648 142.953 98.5015 145.461C99.7906 148.32 100.962 151.238 102.029 154.168C102.662 155.902 103.623 157.297 105.732 156.981C107.982 156.629 108.814 155.012 108.802 152.949C108.744 146.656 108.755 140.363 108.767 134.07Z" fill="#2D88FF"/>
<defs>
<radialGradient id="paint0_radial_2517_721" cx="0" cy="0" r="1" gradientUnits="userSpaceOnUse" gradientTransform="translate(115 115) rotate(90) scale(115)">
<stop stop-color="white"/>
<stop offset="1" stop-color="#7095E6"/>
</radialGradient>
<radialGradient id="paint1_radial_2517_721" cx="0" cy="0" r="1" gradientUnits="userSpaceOnUse" gradientTransform="translate(115 115) rotate(90) scale(83)">
<stop stop-color="#FF9898"/>
<stop offset="1" stop-color="#2354BF"/>
</radialGradient>
</defs>
</svg>
