<svg width="1052" height="730" viewBox="0 0 1052 730" fill="none" xmlns="http://www.w3.org/2000/svg">
<path d="M136.389 650.499L945.381 662.217C951.879 666.086 991.671 591.366 1028.99 510.5C1075.65 409.417 1052.49 273.138 945.381 234.5C869.955 207.292 873.948 106.98 814.994 93.9729C622.494 51.5 640.309 -28.1786 478.625 10.7083C98.9928 102.015 334.5 119.5 30.9996 325.5C-69.1913 393.504 108.462 588.257 136.389 650.499Z" fill="#F8E8E4"/>
<path d="M363.698 285.004V271.714H379.178C382.651 271.714 385.572 270.935 387.941 269.377C390.31 267.82 392.095 265.499 393.295 262.416C394.529 259.333 395.145 255.52 395.145 250.976V248.104C395.145 243.528 394.529 239.715 393.295 236.664C392.095 233.614 390.31 231.326 387.941 229.8C385.572 228.243 382.634 227.464 379.129 227.464H363.406V214.125H379.129C385.555 214.125 391.218 215.569 396.119 218.458C401.052 221.314 404.914 225.305 407.705 230.433C410.496 235.528 411.891 241.451 411.891 248.202V250.976C411.891 257.694 410.496 263.617 407.705 268.745C404.914 273.84 401.068 277.832 396.168 280.72C391.267 283.576 385.604 285.004 379.178 285.004H363.698ZM373.19 285.004H356.639V214.125H373.19V285.004ZM445.676 285.978C440.029 285.978 435.193 284.809 431.169 282.473C427.177 280.136 424.126 277.037 422.017 273.175C419.907 269.313 418.853 265.077 418.853 260.469V258.619C418.853 253.459 419.826 248.818 421.774 244.697C423.721 240.575 426.56 237.33 430.293 234.96C434.025 232.559 438.584 231.358 443.972 231.358C449.067 231.358 453.367 232.429 456.872 234.571C460.41 236.68 463.103 239.682 464.953 243.577C466.803 247.439 467.728 252.015 467.728 257.305V263.974H425.181V253.556H452.199V252.291C452.199 250.603 451.89 249.143 451.274 247.909C450.657 246.676 449.732 245.735 448.499 245.086C447.298 244.437 445.757 244.112 443.874 244.112C441.505 244.112 439.655 244.778 438.325 246.108C436.994 247.406 436.053 249.159 435.501 251.366C434.95 253.54 434.674 255.958 434.674 258.619V260.469C434.674 263 435.144 265.223 436.086 267.138C437.059 269.053 438.438 270.546 440.223 271.617C442.041 272.655 444.199 273.175 446.698 273.175C449.067 273.175 451.323 272.753 453.464 271.909C455.639 271.033 457.489 269.637 459.014 267.722L466.462 276.631C464.807 278.968 462.211 281.109 458.673 283.057C455.168 285.004 450.836 285.978 445.676 285.978ZM495.232 285.978C490.202 285.978 485.951 285.069 482.478 283.251C479.038 281.434 476.425 279.146 474.64 276.387C472.888 273.629 472.012 270.822 472.012 267.966H486.908C487.005 269.588 487.427 270.919 488.174 271.958C488.952 272.964 489.975 273.726 491.24 274.246C492.539 274.732 493.999 274.976 495.622 274.976C497.179 274.976 498.478 274.781 499.516 274.392C500.555 274.002 501.334 273.45 501.853 272.736C502.405 271.99 502.68 271.13 502.68 270.156C502.68 269.248 502.388 268.485 501.804 267.868C501.252 267.219 500.23 266.619 498.737 266.067C497.244 265.483 495.119 264.899 492.36 264.315C488.855 263.568 485.691 262.53 482.867 261.199C480.044 259.836 477.805 258.084 476.15 255.942C474.527 253.767 473.716 251.139 473.716 248.055C473.716 245.102 474.559 242.36 476.247 239.828C477.934 237.265 480.385 235.22 483.598 233.695C486.811 232.137 490.689 231.358 495.232 231.358C499.906 231.358 503.946 232.088 507.354 233.549C510.761 235.009 513.374 237.037 515.191 239.634C517.041 242.198 517.966 245.167 517.966 248.542H502.145C502.145 246.563 501.593 245.037 500.49 243.966C499.419 242.863 497.65 242.311 495.184 242.311C493.95 242.311 492.847 242.522 491.873 242.944C490.9 243.366 490.137 243.95 489.585 244.697C489.066 245.411 488.806 246.271 488.806 247.277C488.806 248.185 489.115 248.997 489.731 249.711C490.348 250.392 491.305 250.993 492.604 251.512C493.902 251.999 495.622 252.437 497.764 252.826C501.398 253.508 504.741 254.449 507.792 255.65C510.875 256.85 513.341 258.554 515.191 260.761C517.074 262.968 518.015 265.937 518.015 269.67C518.015 272.753 517.074 275.544 515.191 278.043C513.341 280.509 510.713 282.456 507.305 283.884C503.897 285.28 499.873 285.978 495.232 285.978ZM534.858 210.815C537.519 210.815 539.645 211.578 541.235 213.103C542.858 214.596 543.669 216.511 543.669 218.847C543.669 221.184 542.858 223.115 541.235 224.64C539.645 226.133 537.519 226.879 534.858 226.879C532.229 226.879 530.104 226.133 528.481 224.64C526.891 223.115 526.096 221.184 526.096 218.847C526.096 216.511 526.891 214.596 528.481 213.103C530.104 211.578 532.229 210.815 534.858 210.815ZM542.842 285.004H526.923V232.332H542.842V285.004ZM574.435 305.693C572.196 305.693 569.827 305.401 567.328 304.817C564.861 304.265 562.509 303.389 560.269 302.188C558.062 301.02 556.213 299.559 554.72 297.807L561.535 288.071C562.963 289.596 564.715 290.878 566.792 291.917C568.87 292.955 571.206 293.474 573.802 293.474C577.372 293.474 580.115 292.549 582.029 290.7C583.944 288.85 584.902 286.237 584.902 282.862V244.794L586.411 232.332H600.82V282.959C600.82 287.827 599.717 291.949 597.51 295.324C595.303 298.732 592.204 301.312 588.212 303.064C584.253 304.817 579.66 305.693 574.435 305.693ZM572.78 285.978C568.399 285.978 564.602 284.825 561.389 282.521C558.176 280.185 555.693 277.004 553.941 272.98C552.188 268.956 551.312 264.396 551.312 259.301V258.278C551.312 252.956 552.172 248.283 553.892 244.258C555.645 240.202 558.144 237.037 561.389 234.766C564.634 232.494 568.464 231.358 572.878 231.358C576.48 231.358 579.449 232.056 581.786 233.451C584.155 234.814 586.07 236.745 587.53 239.244C588.991 241.711 590.127 244.599 590.938 247.909C591.749 251.187 592.415 254.741 592.934 258.57V259.544C592.22 264.315 591.116 268.712 589.624 272.736C588.131 276.728 586.021 279.941 583.295 282.375C580.601 284.777 577.096 285.978 572.78 285.978ZM576.869 273.175C579.271 273.175 581.202 272.672 582.662 271.665C584.123 270.659 585.21 269.231 585.924 267.382C586.638 265.532 586.995 263.374 586.995 260.907V257.207C586.995 255.065 586.8 253.183 586.411 251.56C586.021 249.905 585.405 248.542 584.561 247.471C583.749 246.368 582.711 245.54 581.445 244.989C580.212 244.437 578.719 244.161 576.967 244.161C574.792 244.161 572.975 244.778 571.514 246.011C570.087 247.244 568.999 248.932 568.253 251.074C567.539 253.183 567.182 255.585 567.182 258.278V259.301C567.182 261.897 567.523 264.25 568.204 266.359C568.918 268.436 569.989 270.091 571.417 271.325C572.845 272.558 574.662 273.175 576.869 273.175ZM626.085 285.004H610.264V232.332H625.112L626.085 243.577V285.004ZM620.049 257.207C620.016 251.788 620.844 247.147 622.532 243.285C624.252 239.423 626.653 236.47 629.736 234.425C632.852 232.38 636.454 231.358 640.543 231.358C643.854 231.358 646.742 232.007 649.208 233.305C651.675 234.603 653.606 236.745 655.001 239.731C656.429 242.684 657.143 246.709 657.143 251.804V285.004H641.225V251.755C641.225 249.711 640.933 248.137 640.349 247.033C639.764 245.93 638.904 245.183 637.769 244.794C636.633 244.372 635.237 244.161 633.582 244.161C631.894 244.161 630.45 244.469 629.249 245.086C628.049 245.703 627.059 246.595 626.28 247.763C625.501 248.899 624.933 250.246 624.576 251.804C624.219 253.362 624.041 255.082 624.041 256.964L620.049 257.207ZM691.901 285.978C686.254 285.978 681.419 284.809 677.394 282.473C673.403 280.136 670.352 277.037 668.242 273.175C666.133 269.313 665.078 265.077 665.078 260.469V258.619C665.078 253.459 666.052 248.818 667.999 244.697C669.946 240.575 672.786 237.33 676.518 234.96C680.25 232.559 684.81 231.358 690.197 231.358C695.293 231.358 699.593 232.429 703.098 234.571C706.635 236.68 709.329 239.682 711.179 243.577C713.028 247.439 713.953 252.015 713.953 257.305V263.974H671.407V253.556H698.424V252.291C698.424 250.603 698.116 249.143 697.499 247.909C696.883 246.676 695.958 245.735 694.725 245.086C693.524 244.437 691.982 244.112 690.1 244.112C687.731 244.112 685.881 244.778 684.55 246.108C683.22 247.406 682.279 249.159 681.727 251.366C681.175 253.54 680.899 255.958 680.899 258.619V260.469C680.899 263 681.37 265.223 682.311 267.138C683.285 269.053 684.664 270.546 686.449 271.617C688.266 272.655 690.425 273.175 692.923 273.175C695.293 273.175 697.548 272.753 699.69 271.909C701.864 271.033 703.714 269.637 705.24 267.722L712.688 276.631C711.033 278.968 708.436 281.109 704.899 283.057C701.394 285.004 697.061 285.978 691.901 285.978ZM736.979 285.004H721.158V232.332H736.006L736.979 245.232V285.004ZM752.168 247.325C751.486 247.26 750.61 247.179 749.539 247.082C748.5 246.985 747.608 246.936 746.861 246.936C744.33 246.936 742.253 247.309 740.63 248.055C739.04 248.769 737.855 249.873 737.077 251.366C736.33 252.826 735.941 254.676 735.908 256.915L732.939 255.114C732.939 250.441 733.539 246.319 734.74 242.749C735.941 239.179 737.645 236.388 739.851 234.376C742.091 232.364 744.784 231.358 747.932 231.358C748.679 231.358 749.474 231.407 750.318 231.504C751.161 231.601 751.859 231.748 752.411 231.942L752.168 247.325Z" fill="#E8A9AF"/>
<path d="M446.38 635.935C446.38 635.935 428.253 504.087 399.369 506.576C370.488 509.064 339.147 531.175 354.818 499.389C370.488 467.601 385.544 421.164 361.271 433.879C336.998 446.594 332.083 459.585 332.083 431.667C332.083 403.749 338.229 365.053 318.871 371.685C299.513 378.319 285.381 423.374 294.598 456.818C303.815 490.264 272.782 468.703 258.648 469.257C244.514 469.809 227.923 518.734 266.33 556.326C304.737 593.919 419.343 669.931 467.58 669.377C515.817 668.823 446.38 635.931 446.38 635.931V635.935Z" fill="#FCCDC5"/>
<path d="M434.22 662.932C414.991 657.656 397.771 649.149 383.041 637.652C369.651 627.2 358.019 614.04 348.467 598.544C332.399 572.47 321.85 539.381 317.119 500.196C312.911 465.357 314.173 432.045 315.973 410.231C317.923 386.596 320.908 370.988 320.939 370.832L322.076 371.051C322.045 371.207 319.071 386.771 317.126 410.354C315.332 432.113 314.074 465.344 318.273 500.082C325.677 561.343 351.855 639.132 434.529 661.817L434.222 662.935L434.22 662.932Z" fill="white"/>
<path d="M216.897 516.522C210.931 517.731 206.91 523.356 207.61 529.404C209.047 541.781 213.562 564.757 227.742 583.634C248.245 610.927 239.907 609.556 233.303 621.204C219.837 644.956 272.218 658.586 297.952 669.507C328.419 682.436 468.556 692.575 468.556 692.575C410.536 586.185 376.742 575.709 374.578 575.275C360.374 572.424 363.484 597.045 363.666 596.85C363.863 596.64 363.666 605.778 338.125 578.002C306.383 541.054 301.238 529.025 280.097 533.366C247.268 540.105 238.457 512.157 216.897 516.525V516.522Z" fill="#E8A9AF"/>
<path d="M279.655 463.87C283.949 463.87 287.43 460.343 287.43 455.992C287.43 451.641 283.949 448.113 279.655 448.113C275.36 448.113 271.879 451.641 271.879 455.992C271.879 460.343 275.36 463.87 279.655 463.87Z" fill="#FCCDC5"/>
<path d="M454.518 696.848C421.377 687.557 387.889 672.52 354.984 652.154C328.667 635.867 302.662 616.152 277.69 593.561C235.174 555.095 210.064 521.154 209.816 520.814L210.749 520.129C210.997 520.466 236.052 554.331 278.487 592.72C317.637 628.138 380.01 674.759 454.832 695.733L454.518 696.848Z" fill="white"/>
<path d="M616.979 558.271C614.627 536.836 616.951 515.113 624.089 494.765C632.458 470.906 647.368 449.158 672.585 467.826C706.718 493.098 719.223 478.32 719.192 443.472C719.162 406.971 761.641 350.342 786.479 412.422C803.145 454.08 719.854 543.129 745.047 528.334C782.442 506.371 829.153 520.727 797.097 559.075C773.251 587.601 630.191 678.692 630.191 678.692L616.979 558.273V558.271Z" fill="#FCCDC5"/>
<path d="M660.254 672.734C660.254 672.734 815.959 670.333 821.174 641.872C826.389 613.411 794.634 625.609 826.297 613.264C857.96 600.92 859.301 566.81 846.877 560.605C826.641 550.501 688.566 623.011 660.256 672.731L660.254 672.734Z" fill="#E8A9AF"/>
<path d="M846.698 559.124L662.82 661.848L663.384 662.857L847.262 560.134L846.698 559.124Z" fill="white"/>
<path d="M619.004 668.851L618.496 667.81C636.214 659.15 654.943 638.889 674.165 607.594C689.574 582.508 705.32 550.331 720.963 511.956C747.611 446.593 764.943 385.098 765.114 384.484L766.228 384.798C766.055 385.411 748.708 446.961 722.039 512.383C706.369 550.819 690.595 583.056 675.153 608.196C655.812 639.684 636.921 660.092 619.002 668.851H619.004Z" fill="white"/>
<path d="M703.756 457.745C707.378 451.457 705.216 443.423 698.928 439.801C692.639 436.179 684.606 438.341 680.984 444.629C677.362 450.918 679.524 458.952 685.812 462.574C692.1 466.195 700.134 464.034 703.756 457.745Z" fill="#FCCDC5"/>
<path d="M547.623 291.165C548.072 291.274 548.457 291.386 548.865 291.506C549.268 291.627 549.664 291.752 550.06 291.883C550.851 292.146 551.633 292.428 552.406 292.728C553.955 293.329 555.471 293.997 556.958 294.728C559.93 296.187 562.775 297.906 565.452 299.86C568.124 301.818 570.617 304.026 572.862 306.466C575.104 308.908 577.093 311.585 578.778 314.437C579.623 315.863 580.377 317.341 581.062 318.846C581.413 319.597 581.717 320.366 582.03 321.13C582.319 321.906 582.615 322.677 582.867 323.465C583.001 323.857 583.13 324.249 583.244 324.646C583.36 325.042 583.482 325.436 583.594 325.835C583.802 326.634 584.021 327.43 584.194 328.238C584.389 329.039 584.529 329.852 584.689 330.662C584.762 331.068 584.821 331.475 584.886 331.882C584.954 332.29 585.016 332.697 585.062 333.105L585.215 334.331L585.331 335.56C585.419 336.379 585.447 337.201 585.502 338.022C585.524 338.432 585.528 338.843 585.544 339.253C585.552 339.665 585.576 340.074 585.57 340.484C585.565 341.305 585.581 342.127 585.544 342.946C585.449 346.227 585.138 349.495 584.61 352.732C584.076 355.967 583.296 359.163 582.289 362.282C582.17 362.674 582.032 363.059 581.897 363.447L581.487 364.606L581.045 365.751L580.823 366.325L580.585 366.892L580.107 368.025L579.595 369.142L579.338 369.7L579.067 370.25L578.519 371.35C575.514 377.174 571.545 382.477 566.886 387.05C562.232 391.634 556.907 395.498 551.221 398.665C548.376 400.249 545.437 401.659 542.427 402.892C540.92 403.506 539.398 404.08 537.858 404.599C536.316 405.116 534.761 405.595 533.18 405.97C534.755 405.569 536.301 405.065 537.832 404.524C539.363 403.981 540.874 403.385 542.366 402.748C545.349 401.469 548.258 400.017 551.066 398.394C556.68 395.148 561.908 391.222 566.446 386.607C570.989 382.003 574.82 376.705 577.687 370.927L578.208 369.836L578.467 369.291L578.71 368.737L579.196 367.631L579.649 366.509L579.875 365.948L580.083 365.381L580.501 364.247L580.885 363.101C581.012 362.72 581.143 362.339 581.253 361.951C582.192 358.872 582.909 355.722 583.384 352.537C583.85 349.352 584.109 346.133 584.159 342.915C584.186 342.111 584.159 341.307 584.153 340.504C584.153 340.101 584.124 339.7 584.111 339.299C584.091 338.898 584.08 338.497 584.054 338.096C583.988 337.297 583.951 336.493 583.853 335.698L583.723 334.502L583.557 333.311C583.507 332.912 583.441 332.518 583.371 332.123C583.301 331.729 583.237 331.333 583.163 330.941C582.998 330.157 582.849 329.37 582.65 328.595C582.473 327.815 582.249 327.046 582.037 326.275C581.923 325.892 581.8 325.513 581.682 325.13C581.568 324.746 581.437 324.37 581.301 323.993C581.047 323.235 580.749 322.495 580.462 321.75C580.149 321.016 579.844 320.278 579.498 319.562C578.817 318.121 578.075 316.708 577.242 315.35C575.584 312.63 573.641 310.089 571.453 307.774C569.265 305.461 566.84 303.373 564.245 301.525C561.645 299.68 558.883 298.064 556.003 296.699C554.564 296.016 553.096 295.392 551.605 294.84C550.86 294.564 550.109 294.303 549.353 294.065C548.976 293.946 548.597 293.83 548.218 293.723C547.846 293.618 547.45 293.51 547.108 293.434L547.623 291.16V291.165Z" fill="#172224"/>
<path d="M519.094 290.505C519.094 290.505 527.088 285.839 540.441 287.646C540.517 287.657 540.592 287.666 540.668 287.677C550.665 289.057 560.064 293.354 567.675 300.076C573.475 305.2 579.24 312.071 580.648 319.923C585.903 349.221 578.78 364.667 578.78 364.667C578.78 364.667 574.916 386.154 546.854 398.853C518.792 411.553 496.463 425.038 496.463 425.038C496.463 425.038 462.969 328.502 519.094 290.5V290.505Z" fill="#34002F"/>
<path d="M502.76 439.622L573.065 436.001C573.065 436.001 574.574 412.164 567.031 405.223C559.487 398.282 527.804 394.661 516.943 402.205C506.081 409.748 499.442 434.792 502.76 439.62V439.622Z" fill="#8686B7"/>
<path d="M571.558 418.789C545.002 454.695 496.121 425.428 496.121 425.428C515.88 419.253 519.649 406.891 519.376 397.685C519.181 391.145 516.942 386.199 516.942 386.199H546.514C546.514 394.888 548.59 401.273 551.547 405.962C558.858 417.565 571.558 418.789 571.558 418.789Z" fill="#FDBD96"/>
<path d="M351.998 577.11C353.573 576.926 354.725 576.394 354.725 576.394C354.725 576.394 353.573 575.861 351.998 575.677C351.831 575.658 351.7 575.526 351.68 575.36C351.496 573.785 350.964 572.633 350.964 572.633C350.964 572.633 350.432 573.785 350.248 575.36C350.228 575.526 350.097 575.658 349.93 575.677C348.355 575.861 347.203 576.394 347.203 576.394C347.203 576.394 348.355 576.926 349.93 577.11C350.097 577.13 350.228 577.261 350.248 577.427C350.432 579.002 350.964 580.154 350.964 580.154C350.964 580.154 351.496 579.002 351.68 577.427C351.7 577.261 351.831 577.13 351.998 577.11Z" fill="white"/>
<path d="M511.109 417.44L483.875 436.68L538.429 509.812L578.12 427.728L580.422 422.491C580.422 422.491 559.222 413.896 559.215 413.938C557.667 422.182 536.147 443.297 511.107 417.44H511.109Z" fill="white"/>
<path d="M652.725 600.74C644.42 599.437 634.881 587.675 627.861 577.122C621.877 568.122 617.722 560.005 617.722 560.005C626.17 537.074 604.144 501.771 604.144 501.771L599.597 543.33C599.597 543.33 599.597 543.352 599.593 543.363L599.111 547.763C599.111 547.776 599.107 547.783 599.107 547.783L591.167 620.354L482.538 617.336L480.512 589.988L474.692 511.426L465.337 532.547C455.985 553.67 471.372 593.799 471.372 593.799L466.737 596.872L444.516 611.604C444.516 611.604 413.74 594.406 406.799 579.619C399.858 564.834 417.361 514.442 432.748 480.647C448.135 446.853 494.907 425.43 494.907 425.43L514.519 440.819L539.865 491.209L541.092 486.756L553.745 440.819L556.739 437.113L571.548 418.793C571.548 418.793 584.523 423.62 598.101 431.466C611.679 439.312 662.674 507.807 672.631 540.395C682.588 572.982 652.717 600.742 652.717 600.742L652.725 600.74Z" fill="#9D9DD9"/>
<path d="M517.853 441.3C517.853 441.3 549.101 495.854 542.006 518.486L540.836 521.325C540.836 521.325 540.994 490.788 527.145 469.001C513.295 447.214 500.883 453.388 498.813 459.168C496.743 464.949 504.681 438.262 504.681 438.262L517.856 441.302L517.853 441.3Z" fill="#9D9DD9"/>
<path d="M569.426 457.483C569.426 457.483 560.877 446.168 557.561 450.389C554.245 454.612 539.938 498.863 539.938 498.863C539.938 498.863 540.448 493.772 541.147 486.757L554.218 440.819L557.311 437.113L567.678 444.814L569.424 457.481L569.426 457.483Z" fill="#9D9DD9"/>
<path d="M516.938 402.191C516.938 402.191 504.558 419.572 518.138 441.6C518.138 441.6 502.755 439.609 497.928 457.409C497.928 457.409 485.034 413.899 516.938 402.191Z" fill="#8686B7"/>
<path d="M568.546 457.411C568.546 457.411 572.193 449.506 553.785 440.756C553.785 440.756 571.52 425.386 566.96 405.117C566.96 405.117 595.099 431.158 568.546 457.411Z" fill="#8686B7"/>
<path d="M438.48 607.986C438.48 607.986 459.919 639.366 482.55 639.366C505.18 639.366 460.522 590.785 460.522 590.785L438.48 607.984V607.986Z" fill="#FDBD96"/>
<path d="M652.722 599.535C652.722 599.535 634.919 623.372 619.53 629.709C604.141 636.046 601.125 624.579 601.125 624.579L632.503 578.414L652.722 599.535Z" fill="#FDBD96"/>
<path d="M435.321 612.939L437.82 615.784C440.076 618.353 443.942 618.723 446.643 616.627L471.86 597.063C474.628 594.914 475.183 590.95 473.106 588.124L470.07 583.994C467.854 580.975 463.545 580.467 460.685 582.883L436.004 603.733C433.24 606.068 432.929 610.218 435.319 612.939H435.321Z" fill="#8686B7"/>
<path d="M627.875 577.128L627.868 577.122C621.884 568.122 617.729 560.004 617.729 560.004C626.177 537.074 603.256 509.8 603.256 509.8L599.605 543.329C600.268 535.874 594.414 521.65 596.602 512.457C598.713 503.59 596.79 481.247 605.637 494.639C611.886 504.096 625.001 519.05 625.229 519.637C637.39 550.884 631.055 570.728 627.875 577.13V577.128Z" fill="#8686B7"/>
<path d="M653.333 604.84L658.452 599.721C660.64 597.533 660.429 593.928 658.005 592.007L631.097 570.704C628.604 568.731 624.94 569.451 623.378 572.22L619.245 579.553C617.961 581.831 618.579 584.709 620.684 586.26L646.606 605.348C648.665 606.864 651.524 606.649 653.333 604.84Z" fill="#8686B7"/>
<path d="M497.539 578.417L480.521 589.992L474.701 511.43L465.346 532.551C455.994 553.675 471.38 593.804 471.38 593.804L466.746 596.877C463.191 587.848 448.842 550.102 452.104 537.204C455.818 522.509 480.142 499.539 480.142 499.539L486.559 530.617L497.537 578.417H497.539Z" fill="#8686B7"/>
<path d="M551.548 405.962C538.281 404.76 525.126 399.994 519.379 397.685C519.184 391.145 516.945 386.199 516.945 386.199H546.517C546.517 394.888 548.593 401.273 551.55 405.962H551.548Z" fill="#FB9B77"/>
<path d="M483.446 485.776C483.446 485.776 467.003 497.544 478.242 519.57C489.48 541.598 478.879 547.779 478.879 547.779C478.879 547.779 513.317 510.517 483.446 485.773V485.776Z" fill="#34002F"/>
<path d="M491.553 297.895C488.282 300.396 483.291 306.424 481.924 308.207C474.602 317.761 469.877 329.083 468.539 341.046C467.637 349.113 468.066 358.115 471.746 366.274C473.082 369.238 472.952 369.293 472.952 369.293C472.952 369.293 447.959 383.322 470.988 418.908C472.538 421.304 472.497 424.394 470.909 426.764C465.021 435.556 454.506 458.826 483.457 485.784C483.457 485.784 508.017 472.689 500.923 439.584C500.401 437.151 499.173 433.841 498.349 431.76C497.883 430.582 497.907 429.27 498.415 428.109C500.152 424.142 503.722 412.486 501.862 386.213C501.862 386.213 570.625 319.969 526.933 293.657C515.521 286.786 503.448 288.805 491.557 297.899L491.553 297.895Z" fill="#34002F"/>
<path d="M631.52 526.375L623.554 637.268C623.219 641.949 619.322 645.574 614.63 645.574H461.749C457.232 645.574 453.423 642.205 452.869 637.724L450.922 621.945L438.967 525.063C438.608 522.15 440.881 519.578 443.816 519.578H625.192C628.874 519.578 631.783 522.704 631.52 526.377V526.375Z" fill="#D3D5DB"/>
<path d="M547.391 588.685C552.222 583.854 552.222 576.021 547.391 571.19C542.56 566.359 534.727 566.359 529.896 571.19C525.065 576.021 525.065 583.854 529.896 588.685C534.727 593.516 542.56 593.516 547.391 588.685Z" fill="white"/>
<path d="M496.121 340.641C496.121 340.641 501.183 396.538 528.676 398.461C556.169 400.386 562.505 365.08 562.505 346.07C562.505 327.061 539.573 305.033 522.374 309.862C505.176 314.69 496.123 340.641 496.123 340.641H496.121Z" fill="#FDBD96"/>
<path d="M532.588 371.579C531.033 371.579 528.302 371.205 527.073 370.195C526.293 369.553 526.057 368.682 526.41 367.738C528.815 361.296 529.805 356.672 529.813 356.63L530.385 356.742V356.736L530.834 356.363C531.046 356.617 531.09 356.67 530.135 360.082C529.625 361.909 528.753 364.794 527.5 368.149C527.314 368.647 527.461 368.918 527.608 369.1C528.596 370.309 532.623 370.493 533.235 370.397C533.059 370.425 532.797 370.62 532.794 370.951C532.792 371.262 533.02 371.457 533.193 371.505L533.32 370.348C533.673 370.388 533.883 370.548 533.946 370.826L533.679 371.457C533.546 371.54 533.14 371.586 532.586 371.586L532.588 371.579Z" fill="#172224"/>
<path d="M547.426 358.292C547.426 360.042 546.48 361.459 545.315 361.459C544.149 361.459 543.203 360.04 543.203 358.292C543.203 356.544 544.149 355.125 545.315 355.125C546.48 355.125 547.426 356.544 547.426 358.292Z" fill="#172224"/>
<path d="M516.94 361.459C518.106 361.459 519.051 360.041 519.051 358.292C519.051 356.543 518.106 355.125 516.94 355.125C515.773 355.125 514.828 356.543 514.828 358.292C514.828 360.041 515.773 361.459 516.94 361.459Z" fill="#172224"/>
<path d="M552.861 351.049C548.898 346.294 540.319 348.97 540.234 348.999L539.52 346.78C539.931 346.646 549.68 343.588 554.652 349.557L552.861 351.051V351.049Z" fill="#172224"/>
<path d="M510.662 352.47L508.734 351.156C512.736 345.286 520.091 346.339 523.42 347.717L522.531 349.872C522.209 349.741 514.591 346.705 510.662 352.468V352.47Z" fill="#172224"/>
<path d="M540.186 379.664C534.303 388.664 526.299 384.09 523.231 380.52C522.514 379.688 523.073 378.393 524.172 378.341L539.014 377.627C540.087 377.574 540.777 378.763 540.188 379.664H540.186Z" fill="white"/>
<path d="M526.33 680.483C526.139 680.483 525.841 680.382 525.223 680.171C524.452 679.911 522.814 679.344 519.375 678.121C513.306 675.964 500.339 671.303 473.028 661.357C445.846 651.456 426.793 651.978 415.596 654.161C403.532 656.512 397.822 661.21 397.765 661.256L397.016 660.362C397.254 660.163 403.015 655.425 415.373 653.016C422.598 651.608 430.591 651.301 439.129 652.105C449.78 653.108 461.321 655.852 473.425 660.262C522.884 678.275 526.172 679.271 526.384 679.326L526.242 679.878L526.671 680.307C526.555 680.423 526.472 680.483 526.327 680.483H526.33Z" fill="white"/>
<path d="M535.561 303.95C535.561 303.95 535.71 332.619 516.286 344.633C500.553 354.365 485.039 351.287 485.039 351.287C485.039 351.287 503.49 276.392 535.561 303.95Z" fill="#34002F"/>
<path d="M528.953 305.162C528.953 305.162 549.316 347.671 568.048 349.669C586.78 351.667 550.028 299.574 528.953 305.162Z" fill="#34002F"/>
<path d="M471.587 371.004C471.018 371.438 470.472 371.893 469.944 372.371C469.414 372.844 468.9 373.33 468.405 373.836C467.412 374.844 466.471 375.893 465.614 377.003C464.751 378.107 463.958 379.259 463.242 380.453C462.532 381.649 461.899 382.884 461.361 384.152C460.281 386.691 459.591 389.372 459.306 392.094C459.015 394.817 459.144 397.577 459.608 400.286C460.539 405.72 462.749 410.922 465.527 415.796C468.313 420.685 471.675 425.269 475.188 429.781C470.963 425.928 467.139 421.589 463.963 416.751C463.564 416.146 463.194 415.524 462.806 414.913C462.447 414.285 462.077 413.66 461.733 413.021C461.393 412.379 461.043 411.742 460.739 411.08C460.583 410.752 460.419 410.425 460.27 410.092L459.83 409.091C458.686 406.406 457.803 403.587 457.311 400.676C457.072 399.222 456.916 397.748 456.875 396.267C456.842 394.786 456.914 393.301 457.114 391.832C457.508 388.894 458.382 386.021 459.7 383.388C460.357 382.072 461.117 380.81 461.963 379.618C462.811 378.427 463.746 377.305 464.751 376.258C465.767 375.22 466.832 374.239 467.975 373.356C469.116 372.476 470.308 371.659 471.583 371.006L471.587 371.004Z" fill="#34002F"/>
<path d="M473.391 471.961C467.21 465.578 463.254 458.626 461.635 451.3C460.337 445.423 460.534 439.31 462.22 433.129C465.076 422.659 471.157 415.709 471.413 415.418L473.159 416.964C473.099 417.032 467.144 423.857 464.446 433.825C460.86 447.077 464.432 459.362 475.064 470.34L473.389 471.963L473.391 471.961Z" fill="#34002F"/>
<path d="M489.047 303.679C488.752 303.929 488.425 304.223 488.119 304.503C487.808 304.79 487.499 305.079 487.194 305.373C486.583 305.96 485.981 306.564 485.392 307.177C484.209 308.404 483.07 309.674 481.971 310.98C479.774 313.593 477.737 316.346 475.903 319.231C474.07 322.115 472.441 325.129 471.063 328.259C470.375 329.823 469.746 331.415 469.192 333.034C468.643 334.653 468.165 336.295 467.762 337.958C467.668 338.374 467.558 338.788 467.475 339.209L467.217 340.466C467.068 341.309 466.914 342.15 466.805 343C466.575 344.695 466.406 346.404 466.356 348.117C466.233 351.542 466.474 354.985 467.07 358.372C467.136 358.797 467.223 359.217 467.311 359.638C467.401 360.058 467.475 360.483 467.578 360.899C467.782 361.736 467.974 362.575 468.222 363.398C468.443 364.231 468.717 365.048 468.98 365.869C469.105 366.281 469.267 366.682 469.409 367.089C469.56 367.492 469.692 367.904 469.858 368.302C471.113 371.516 472.646 374.624 474.407 377.6C472.563 374.674 470.938 371.605 469.587 368.412C469.409 368.016 469.265 367.608 469.1 367.205C468.947 366.8 468.772 366.401 468.636 365.99C468.349 365.17 468.049 364.356 467.804 363.523C467.532 362.697 467.313 361.856 467.085 361.02C466.969 360.601 466.881 360.174 466.779 359.754C466.678 359.331 466.577 358.908 466.498 358.481C465.797 355.073 465.456 351.588 465.482 348.099C465.482 346.353 465.607 344.61 465.793 342.875C465.881 342.006 466.014 341.143 466.141 340.277L466.369 338.987C466.443 338.556 466.542 338.131 466.627 337.702C466.991 335.993 467.433 334.3 467.948 332.629C468.467 330.96 469.063 329.313 469.722 327.694C471.041 324.455 472.622 321.32 474.416 318.317C476.21 315.312 478.216 312.436 480.394 309.692C481.484 308.321 482.617 306.985 483.799 305.688C484.391 305.04 484.993 304.4 485.611 303.771C485.92 303.456 486.233 303.147 486.548 302.838C486.87 302.527 487.179 302.232 487.536 301.914L489.054 303.684L489.047 303.679Z" fill="#34002F"/>
<path d="M503.516 401.004C503.724 402.401 503.893 403.764 504.039 405.144C504.191 406.519 504.315 407.897 504.423 409.275C504.635 412.03 504.764 414.792 504.808 417.552C504.841 420.314 504.762 423.074 504.576 425.825C504.357 428.573 504 431.309 503.446 433.999C503.807 431.274 503.969 428.536 503.993 425.8C503.985 423.063 503.869 420.331 503.643 417.606C503.406 414.884 503.087 412.17 502.684 409.472C502.482 408.122 502.261 406.775 502.018 405.435C501.779 404.097 501.512 402.747 501.223 401.446L503.512 401.004H503.516Z" fill="#34002F"/>
<path d="M497.589 422.45C498.47 423.694 499.239 425.015 499.97 426.357C500.702 427.7 501.357 429.082 501.983 430.479C503.214 433.285 504.224 436.198 504.99 439.184C505.755 442.169 506.261 445.236 506.456 448.335C506.556 449.883 506.567 451.443 506.499 452.998C506.425 454.555 506.261 456.108 506.013 457.65C505.512 460.734 504.598 463.759 503.326 466.615C502.675 468.037 501.946 469.423 501.127 470.751C500.296 472.071 499.387 473.339 498.411 474.549C496.431 476.943 494.196 479.109 491.743 480.964C489.29 482.817 486.686 484.442 483.941 485.765C486.419 483.998 488.813 482.142 491.003 480.088C493.211 478.055 495.204 475.817 496.956 473.427C497.821 472.222 498.619 470.976 499.357 469.699C500.071 468.407 500.728 467.088 501.295 465.732C501.865 464.377 502.347 462.986 502.747 461.571C503.159 460.16 503.481 458.721 503.713 457.269C504.681 451.454 504.353 445.441 503.21 439.582C502.638 436.65 501.86 433.745 500.921 430.882C499.983 428.017 498.882 425.199 497.589 422.445V422.45Z" fill="#34002F"/>
<path d="M484.026 488.052C486.172 488.052 487.912 487.258 487.912 486.278C487.912 485.298 486.172 484.504 484.026 484.504C481.88 484.504 480.141 485.298 480.141 486.278C480.141 487.258 481.88 488.052 484.026 488.052Z" fill="white"/>
<path d="M560.875 353.775C560.875 353.775 564.66 347.719 569.689 350.273C574.72 352.825 568.666 372.859 559.955 370.864C551.244 368.871 560.875 353.775 560.875 353.775Z" fill="#FDBD96"/>
<path d="M499.562 353.775C499.562 353.775 495.777 347.719 490.748 350.273C485.717 352.825 491.771 372.859 500.482 370.864C509.193 368.871 499.562 353.775 499.562 353.775Z" fill="#FDBD96"/>
<path d="M533.516 304.797C533.516 304.797 529.298 330.358 551.083 344.488C569.83 356.648 568.48 355.128 568.48 355.128C568.48 355.128 534.533 326.078 533.518 304.797H533.516Z" fill="#34002F"/>
<path d="M562.816 367.313L562.312 366.261C562.345 366.246 565.688 364.549 567.926 358.148L569.026 358.534C566.61 365.44 562.97 367.24 562.814 367.313H562.816Z" fill="#172224"/>
<path d="M494.726 365.632C494.625 365.509 492.255 362.583 491.057 356.766C490.711 355.081 490.976 353.861 491.848 353.143C493.64 351.662 497.194 353.073 497.593 353.239L497.146 354.317C496.24 353.942 493.653 353.163 492.588 354.043C492.076 354.466 491.944 355.305 492.198 356.531C493.333 362.042 495.602 364.865 495.624 364.892L494.724 365.632H494.726Z" fill="#172224"/>
<path d="M539.369 519.655C538.815 497.553 555.604 450.998 555.772 450.531L556.87 450.93C556.701 451.396 539.984 497.743 540.534 519.627L539.369 519.655Z" fill="white"/>
<path d="M532.743 479.794C531.429 475.004 516.452 442.438 516.301 442.11L517.361 441.621C517.979 442.966 532.529 474.603 533.869 479.485L532.746 479.794H532.743Z" fill="white"/>
<g opacity="0.78">
<path d="M631.504 526.367L623.538 637.26C623.203 641.941 619.306 645.566 614.615 645.566H461.733C457.217 645.566 453.408 642.197 452.853 637.716L450.906 621.937C490.855 626.035 616.277 630.087 617.191 519.57H625.176C628.858 519.57 631.767 522.696 631.504 526.369V526.367Z" fill="#C2C3C4"/>
</g>
<path d="M219.471 479.588C220.083 475.997 217.669 472.59 214.078 471.978C210.488 471.365 207.081 473.779 206.468 477.37C205.856 480.96 208.27 484.368 211.861 484.98C215.451 485.592 218.858 483.178 219.471 479.588Z" fill="#FFFEFB"/>
<path d="M795.096 495.557C800.883 493.16 803.631 486.526 801.234 480.739C798.837 474.952 792.203 472.204 786.416 474.601C780.629 476.998 777.881 483.633 780.278 489.42C782.675 495.206 789.309 497.954 795.096 495.557Z" fill="#FCCDC5"/>
<path d="M835.079 510.537C838.978 510.537 842.138 507.376 842.138 503.477C842.138 499.579 838.978 496.418 835.079 496.418C831.18 496.418 828.02 499.579 828.02 503.477C828.02 507.376 831.18 510.537 835.079 510.537Z" fill="#FFFEFB"/>
<path d="M853.933 636.497V646.738C853.933 649.474 852.185 651.694 850.029 651.694H207.97C205.812 651.694 204.066 649.474 204.066 646.738V636.497C204.066 633.761 205.814 631.543 207.97 631.543H850.027C852.185 631.543 853.93 633.761 853.93 636.497H853.933Z" fill="#564D68"/>
<path d="M309.113 561.605L317.213 631.501H346.143L356.326 561.605H309.113Z" fill="#B9CFF8"/>
<path d="M307.723 574.328H356.324L352.622 602.333H311.656L307.723 574.328Z" fill="#FFFEFB"/>
<path d="M312.283 555.586H352.694C355.848 555.586 358.409 558.146 358.409 561.3V564.612H306.566V561.3C306.566 558.146 309.127 555.586 312.281 555.586H312.283Z" fill="#80808E"/>
<path d="M316.234 546.562H348.743C351.139 546.562 353.086 548.51 353.086 550.906V555.589H311.891V550.906C311.891 548.51 313.838 546.562 316.234 546.562Z" fill="#80808E"/>
<path d="M136.172 650.168H961.92C961.92 650.168 955.373 691.067 866.52 714.596C777.667 738.124 271.63 730.318 228.405 714.596C185.18 698.874 136.172 650.168 136.172 650.168Z" fill="#F8E8E4"/>
<path d="M486.838 396.612C483.792 396.308 481.838 394.498 479.52 392.953" stroke="#FF5733" stroke-width="0.343837" stroke-linecap="round"/>
<g clip-path="url(#clip0_2453_44617)">
<path d="M256.616 191.453H277.852C283.614 191.453 288.224 196.118 288.224 201.949V227.94C288.224 248.267 272.09 264.594 252.006 264.594H223.361C219.246 264.594 215.953 261.262 215.953 257.097V232.772C215.953 209.947 234.062 191.62 256.616 191.453Z" fill="#FBB03B"/>
<path d="M259.163 264.594H185.481C183.85 264.594 182.516 263.245 182.516 261.596V176.463C182.516 158.027 197.341 143.039 215.576 143.039H282.587C285.701 143.039 288.221 145.587 288.221 148.735V235.517C288.073 251.554 275.026 264.594 259.163 264.594ZM188.446 258.599H259.163C271.913 258.599 282.142 248.107 282.142 235.367V149.034H215.576C200.603 149.034 188.446 161.325 188.446 176.463V258.599Z" fill="#9D9DD9"/>
<path d="M225.329 165C218.331 165 212.671 170.375 212.671 177.005V198.004H203.165C201.423 198.004 200 199.352 200 201.002V219.003C200 220.653 201.423 222.001 203.165 222.001H212.671V230.995C212.671 237.625 218.331 243 225.329 243H263.329C270.327 243 276 237.625 276 230.995V188.997C276 185.817 272.865 182.756 267.355 177.626L265.014 175.408L262.673 173.19C257.259 167.97 254.031 165 250.671 165H225.33H225.329ZM225.329 170.996H248.42C250.7 171.536 250.671 174.206 250.671 176.846V185.999C250.671 187.649 252.094 188.997 253.836 188.997H263.329C266.496 188.997 269.671 188.995 269.671 191.995V230.995C269.671 234.295 266.812 237.004 263.329 237.004H225.33C221.846 237.004 219.001 234.295 219.001 230.995V222.001H250.671C252.413 222.001 253.836 220.653 253.836 219.003V201.002C253.836 199.352 252.413 198.004 250.671 198.004H219V177.005C219 173.705 221.846 170.996 225.329 170.996ZM216.659 203.5C218.1 203.5 219.335 203.744 220.364 204.232L219.592 205.694C218.614 205.207 217.637 204.963 216.659 204.963C215.321 204.963 214.215 205.45 213.34 206.425C212.517 207.352 212.105 208.668 212.105 210.374C212.105 212.129 212.491 213.47 213.263 214.396C214.035 215.273 215.167 215.712 216.659 215.712C217.482 215.712 218.537 215.542 219.824 215.2V216.663C218.897 217.004 217.739 217.175 216.35 217.175C214.446 217.175 212.954 216.614 211.873 215.493C210.793 214.323 210.253 212.592 210.253 210.301C210.253 208.156 210.819 206.498 211.951 205.328C213.134 204.11 214.704 203.5 216.659 203.5ZM226.307 203.5C227.696 203.5 228.931 203.744 230.012 204.232L229.394 205.621C228.314 205.182 227.285 204.963 226.307 204.963C225.484 204.963 224.866 205.133 224.455 205.475C224.043 205.816 223.837 206.279 223.837 206.864C223.837 207.547 223.992 208.058 224.3 208.4C224.66 208.692 225.509 209.131 226.847 209.716C228.236 210.252 229.137 210.813 229.549 211.398C230.012 211.934 230.243 212.617 230.243 213.445C230.243 214.567 229.832 215.468 229.008 216.151C228.185 216.833 227.001 217.175 225.458 217.175C223.966 217.175 222.782 216.98 221.907 216.59V214.981C223.142 215.468 224.326 215.712 225.458 215.712C226.487 215.712 227.233 215.542 227.696 215.2C228.211 214.859 228.468 214.323 228.468 213.592C228.468 213.007 228.288 212.519 227.928 212.129C227.67 211.885 226.719 211.422 225.072 210.74C223.992 210.252 223.22 209.716 222.757 209.131C222.293 208.546 222.062 207.79 222.062 206.864C222.062 205.84 222.422 205.036 223.142 204.451C223.914 203.817 224.969 203.5 226.307 203.5ZM236.572 203.5C237.962 203.5 239.196 203.744 240.277 204.232L239.66 205.621C238.579 205.182 237.55 204.963 236.572 204.963C235.749 204.963 235.131 205.133 234.72 205.475C234.308 205.816 234.102 206.279 234.102 206.864C234.102 207.547 234.257 208.058 234.565 208.4C234.926 208.692 235.775 209.131 237.113 209.716C238.502 210.252 239.402 210.813 239.814 211.398C240.277 211.934 240.509 212.617 240.509 213.445C240.509 214.567 240.097 215.468 239.274 216.151C238.451 216.833 237.267 217.175 235.723 217.175C234.231 217.175 233.048 216.98 232.173 216.59V214.981C233.408 215.468 234.591 215.712 235.723 215.712C236.753 215.712 237.498 215.542 237.962 215.2C238.476 214.859 238.733 214.323 238.733 213.592C238.733 213.007 238.553 212.519 238.193 212.129C237.936 211.885 236.984 211.422 235.337 210.74C234.257 210.252 233.485 209.716 233.022 209.131C232.559 208.546 232.327 207.79 232.327 206.864C232.327 205.84 232.688 205.036 233.408 204.451C234.18 203.817 235.234 203.5 236.572 203.5Z" fill="#477FE8"/>
</g>
<g clip-path="url(#clip1_2453_44617)">
<path d="M797.244 137.324H817.315C822.76 137.324 827.117 141.615 827.117 146.978V170.882C827.117 189.577 811.869 204.594 792.887 204.594H765.814C761.924 204.594 758.812 201.529 758.812 197.698V175.326C758.812 154.333 775.928 137.477 797.244 137.324Z" fill="#FBB03B"/>
<path d="M796.78 207.663H719.452C717.74 207.663 716.34 206.284 716.34 204.598V117.562C716.34 98.714 731.899 83.3906 751.037 83.3906H821.364C824.631 83.3906 827.276 85.9956 827.276 89.2135V177.936C827.121 194.332 813.429 207.663 796.78 207.663ZM722.563 201.534H796.78C810.161 201.534 820.897 190.807 820.897 177.783V89.52H751.037C735.322 89.52 722.563 102.085 722.563 117.562V201.534Z" fill="#9D9DD9"/>
<g clip-path="url(#clip2_2453_44617)">
<path d="M753.577 171.007H788.194C794.79 171.007 800.131 165.746 800.131 159.251V125.158C800.131 118.663 794.79 113.402 788.194 113.402H753.577C746.982 113.402 741.641 118.663 741.641 125.158V159.251C741.641 165.746 746.982 171.007 753.577 171.007Z" fill="#452041"/>
<path d="M764.02 135.445H770.884V121.926H764.02C760.23 121.926 757.156 124.953 757.156 128.685C757.156 132.418 760.23 135.445 764.02 135.445Z" fill="#FF683C"/>
<path d="M764.02 148.961H770.884V135.441H764.02C760.23 135.441 757.156 138.469 757.156 142.201C757.156 145.934 760.23 148.961 764.02 148.961Z" fill="#AB6AFF"/>
<path d="M764.02 162.484C767.81 162.484 770.884 159.457 770.884 155.725V148.965H764.02C760.23 148.965 757.156 151.992 757.156 155.725C757.156 159.457 760.23 162.484 764.02 162.484Z" fill="#17DC90"/>
<path d="M770.891 135.445H777.754C781.544 135.445 784.618 132.418 784.618 128.685C784.618 124.953 781.544 121.926 777.754 121.926H770.891V135.445Z" fill="#FF8678"/>
<path d="M777.754 148.961C781.544 148.961 784.618 145.934 784.618 142.201C784.618 138.469 781.544 135.441 777.754 135.441C773.964 135.441 770.891 138.469 770.891 142.201C770.891 145.934 773.964 148.961 777.754 148.961Z" fill="#51CDFF"/>
</g>
</g>
<g clip-path="url(#clip3_2453_44617)">
<path d="M601.084 61.4258H621.763C627.374 61.4258 631.863 65.9143 631.863 71.5251V96.5328C631.863 116.09 616.153 131.8 596.595 131.8H568.702C564.694 131.8 561.488 128.594 561.488 124.586V101.182C561.488 79.2198 579.122 61.5861 601.084 61.4258Z" fill="#FBB03B"/>
<path d="M600.605 135.008H520.933C519.169 135.008 517.727 133.565 517.727 131.802V40.7482C517.727 21.0306 533.757 5 553.475 5H625.933C629.3 5 632.025 7.7252 632.025 11.0916V103.909C631.864 121.062 617.758 135.008 600.605 135.008ZM524.139 128.596H600.605C614.391 128.596 625.452 117.375 625.452 103.749V11.4122H553.475C537.284 11.4122 524.139 24.5573 524.139 40.7482V128.596Z" fill="#9D9DD9"/>
<g clip-path="url(#clip4_2453_44617)">
<path d="M575.041 17.0078C574.447 17.0078 573.814 17.2378 573.383 17.6978C572.942 18.1578 572.664 18.6945 572.664 19.3078V60.7078C572.664 61.2828 572.904 61.8961 573.373 62.3178C573.852 62.7778 574.447 63.0078 575.041 63.0078H608.832C609.426 63.0078 610.058 62.7778 610.489 62.3178C610.959 61.8578 611.199 61.2828 611.199 60.7078V30.0411L597.772 17.0078H575.041Z" fill="#023859"/>
<path d="M611.235 30.0411H600.176C599.582 30.0411 598.949 29.8111 598.518 29.3511C598.048 28.9295 597.809 28.3161 597.809 27.7411V17.0078C597.77 17.0078 611.235 30.0411 611.235 30.0411Z" fill="#61B3E5"/>
<path d="M583.568 47.5566V53.575H579.773V36.3633H585.897C590.315 36.3633 592.529 38.1649 592.529 41.8066C592.529 43.57 591.858 44.9883 590.516 46.0616C589.175 47.135 587.517 47.6333 585.504 47.595H583.568V47.5566ZM583.568 39.1999V44.7583H585.188C587.402 44.7583 588.504 43.8383 588.504 41.96C588.504 40.12 587.402 39.1999 585.226 39.1999H583.568ZM594.503 50.2783C595.768 51.045 596.995 51.39 598.212 51.39C599.755 51.39 600.502 51.0066 600.502 50.2016C600.502 49.6266 599.87 49.1666 598.605 48.7833C597.023 48.3233 595.96 47.7866 595.366 47.2116C594.771 46.6366 594.493 45.8316 594.493 44.835C594.493 43.6083 595.011 42.6883 595.998 41.9983C597.023 41.3083 598.327 40.9633 599.946 40.9633C601.087 40.9633 602.237 41.1166 603.301 41.4616V44.2983C602.313 43.7233 601.25 43.4549 600.061 43.4549C599.467 43.4549 598.998 43.5699 598.643 43.7616C598.288 43.9533 598.087 44.2216 598.087 44.5666C598.087 45.1416 598.643 45.6016 599.707 45.9466C600.847 46.33 601.719 46.6366 602.275 46.9433C602.869 47.2499 603.301 47.6333 603.578 48.1316C603.856 48.63 604.048 49.2049 604.048 49.8566C604.048 51.1216 603.531 52.1183 602.467 52.8083C601.403 53.4983 600.023 53.8433 598.279 53.8433C596.899 53.8433 595.634 53.6133 594.446 53.1916V50.2783H594.503Z" fill="white"/>
</g>
<path d="M568.957 70.6406H543.275C542.273 70.6406 541.453 71.4603 541.453 72.4621V112.533C541.453 113.535 542.273 114.355 543.275 114.355H579.703C580.705 114.355 581.525 113.535 581.525 112.533V83.2085L568.957 70.6406Z" fill="#F87E0C"/>
<path d="M568.957 81.3871C568.957 82.3888 569.777 83.2085 570.778 83.2085H581.525L568.957 70.6406V81.3871Z" fill="#F79341"/>
<path d="M559.667 87.6719H554.931L548.738 105.34H553.019L554.385 100.877H560.304L561.67 105.34H566.042L559.667 87.854V87.6719ZM557.208 91.0415C557.39 91.679 557.572 92.2254 557.754 92.8629C558.119 94.0469 558.392 95.1397 558.756 96.2326L559.211 97.8719H555.204L555.66 96.2326C556.206 94.5022 556.753 92.6808 557.208 91.0415ZM567.681 87.6719H571.87V105.34H567.681V87.6719Z" fill="white"/>
</g>
<path d="M451.768 162.86L446.485 141.723V77.0277C446.485 75.5831 445.911 74.1976 444.889 73.176C443.868 72.1545 442.482 71.5806 441.037 71.5806H424.696V55.2394C424.696 40.2217 412.478 28.0039 397.461 28.0039C382.443 28.0039 370.225 40.2217 370.225 55.2394V71.5806H353.884C352.439 71.5806 351.054 72.1545 350.032 73.176C349.011 74.1976 348.437 75.5831 348.437 77.0277V141.723L343.153 162.86C342.954 163.663 342.939 164.501 343.112 165.31C343.284 166.119 343.638 166.879 344.147 167.531C344.656 168.183 345.307 168.711 346.05 169.074C346.793 169.438 347.61 169.627 348.437 169.628H446.485C447.313 169.629 448.13 169.441 448.874 169.078C449.619 168.716 450.27 168.188 450.78 167.535C451.29 166.883 451.643 166.122 451.815 165.312C451.986 164.502 451.97 163.663 451.768 162.86ZM381.119 55.2394C381.119 46.2271 388.449 38.8981 397.461 38.8981C406.473 38.8981 413.802 46.2271 413.802 55.2394V71.5806H381.119V55.2394ZM355.415 158.734L359.17 143.714C359.277 143.281 359.331 142.837 359.331 142.393V82.4748H435.59V142.393C435.59 142.837 435.648 143.281 435.754 143.714L439.507 158.734H355.415Z" fill="#9D9DD9"/>
<path d="M412.251 133.454L416.57 126H423.437L416.163 137.228L423.614 148.611H416.693L412.251 141.032L407.791 148.611H400.871L408.322 137.228L401.048 126H407.915L412.251 133.454Z" fill="#448FB1"/>
<path d="M398.727 126V140.768C398.727 142.539 398.302 144.03 397.452 145.241C396.615 146.452 395.441 147.368 393.93 147.99C392.42 148.611 390.674 148.921 388.692 148.921C386.71 148.921 384.957 148.611 383.435 147.99C381.913 147.368 380.722 146.452 379.86 145.241C379.011 144.03 378.586 142.539 378.586 140.768V126H384.603V140.768C384.603 141.7 384.763 142.456 385.081 143.036C385.4 143.605 385.86 144.024 386.462 144.294C387.075 144.552 387.819 144.682 388.692 144.682C389.577 144.682 390.314 144.552 390.904 144.294C391.506 144.024 391.96 143.605 392.267 143.036C392.574 142.456 392.727 141.7 392.727 140.768V126H398.727Z" fill="#448FB1"/>
<path d="M409.064 115.482H403.082V92.8711H409.064V115.482Z" fill="#448FB1"/>
<path d="M398.727 92.8711V107.639C398.727 109.41 398.302 110.901 397.452 112.112C396.615 113.323 395.441 114.239 393.93 114.861C392.42 115.482 390.674 115.792 388.692 115.792C386.71 115.792 384.957 115.482 383.435 114.861C381.913 114.239 380.722 113.323 379.86 112.112C379.011 110.901 378.586 109.41 378.586 107.639V92.8711H384.603V107.639C384.603 108.571 384.763 109.327 385.081 109.907C385.4 110.476 385.86 110.895 386.462 111.165C387.075 111.423 387.819 111.553 388.692 111.553C389.577 111.553 390.314 111.423 390.904 111.165C391.506 110.895 391.96 110.476 392.267 109.907C392.574 109.327 392.727 108.571 392.727 107.639V92.8711H398.727Z" fill="#448FB1"/>
<path d="M950.424 351.422H875.041C872.219 351.422 869.852 349.055 869.852 346.233V248.271C869.852 245.449 872.219 243.082 875.041 243.082H950.424C953.246 243.082 955.613 245.449 955.613 248.271V346.233C955.613 349.055 953.246 351.422 950.424 351.422Z" fill="#FED4C9"/>
<path d="M950.425 354.15H875.042C870.672 354.15 867.121 350.6 867.121 346.23V248.268C867.121 243.898 870.672 240.348 875.042 240.348H950.425C954.795 240.348 958.345 243.898 958.345 248.268V346.23C958.345 350.6 954.795 354.15 950.425 354.15ZM875.042 245.81C873.676 245.81 872.584 246.903 872.584 248.268V346.23C872.584 347.595 873.676 348.688 875.042 348.688H950.425C951.79 348.688 952.883 347.595 952.883 346.23V248.268C952.883 246.903 951.79 245.81 950.425 245.81H875.042Z" fill="#9D9DD9"/>
<path d="M885.962 248.173H883.412C881.956 248.173 880.863 246.989 880.863 245.624V237.885C880.863 236.428 882.047 235.336 883.412 235.336H885.962C887.418 235.336 888.511 236.519 888.511 237.885V245.624C888.602 246.989 887.418 248.173 885.962 248.173Z" fill="#FED4C9"/>
<path d="M885.966 250.901H883.417C880.504 250.901 878.137 248.534 878.137 245.621V237.882C878.137 234.969 880.504 232.602 883.417 232.602H885.966C888.88 232.602 891.247 234.969 891.247 237.882V245.621C891.338 248.534 888.971 250.901 885.966 250.901ZM883.599 245.439H885.875V237.973H883.599V245.439Z" fill="#9D9DD9"/>
<path d="M901.899 248.173H899.35C897.893 248.173 896.801 246.989 896.801 245.624V237.885C896.801 236.428 897.984 235.336 899.35 235.336H901.899C903.356 235.336 904.448 236.519 904.448 237.885V245.624C904.539 246.989 903.356 248.173 901.899 248.173Z" fill="#FED4C9"/>
<path d="M901.896 250.901H899.347C896.434 250.901 894.066 248.534 894.066 245.621V237.882C894.066 234.969 896.434 232.602 899.347 232.602H901.896C904.809 232.602 907.176 234.969 907.176 237.882V245.621C907.268 248.534 904.9 250.901 901.896 250.901ZM899.529 245.439H901.805V237.973H899.529V245.439Z" fill="#9D9DD9"/>
<path d="M911.363 351.32L955.61 307.164Z" fill="#FED4C9"/>
<path d="M953.68 305.191L957.542 309.054L913.315 353.281L909.453 349.419L953.68 305.191Z" fill="#9D9DD9"/>
<path d="M930.848 352.052L956.157 326.742Z" fill="#FED4C9"/>
<path d="M954.206 324.832L958.069 328.695L932.768 353.995L928.906 350.132L954.206 324.832Z" fill="#9D9DD9"/>
<path d="M931.664 260.375C931.664 261.224 931.831 262.065 932.156 262.849C932.481 263.633 932.957 264.346 933.557 264.947C934.157 265.547 934.87 266.023 935.654 266.348C936.438 266.673 937.279 266.84 938.128 266.84C938.977 266.84 939.818 266.673 940.602 266.348C941.386 266.023 942.099 265.547 942.699 264.947C943.299 264.346 943.776 263.633 944.1 262.849C944.425 262.065 944.592 261.224 944.592 260.375C944.592 259.526 944.425 258.686 944.1 257.901C943.776 257.117 943.299 256.404 942.699 255.804C942.099 255.203 941.386 254.727 940.602 254.402C939.818 254.077 938.977 253.91 938.128 253.91C937.279 253.91 936.438 254.077 935.654 254.402C934.87 254.727 934.157 255.203 933.557 255.804C932.957 256.404 932.481 257.117 932.156 257.901C931.831 258.686 931.664 259.526 931.664 260.375Z" fill="white"/>
<path d="M885.041 308.353V306.226H887.816C888.534 306.226 889.055 306.105 889.377 305.861C889.7 305.612 889.861 305.247 889.861 304.766C889.861 304.206 889.697 303.807 889.368 303.57C889.046 303.333 888.531 303.214 887.825 303.214H886.155V314.004H883.051V300.713H887.825C889.432 300.713 890.686 301.014 891.586 301.616C892.493 302.219 892.947 303.141 892.947 304.382C892.947 304.93 892.825 305.441 892.581 305.916C892.344 306.391 891.955 306.777 891.413 307.075C890.871 307.367 890.15 307.517 889.249 307.523L888.41 308.353H885.041ZM884.229 314.004L885.37 311.512H888.291C888.948 311.512 889.42 311.369 889.706 311.083C889.992 310.791 890.135 310.438 890.135 310.024C890.135 309.677 890.077 309.379 889.961 309.129C889.846 308.88 889.663 308.688 889.414 308.554C889.164 308.42 888.83 308.353 888.41 308.353H885.717V306.226H889.012L889.724 307.084C890.588 307.048 891.276 307.173 891.787 307.459C892.298 307.745 892.664 308.122 892.883 308.591C893.108 309.059 893.22 309.549 893.22 310.06C893.22 311.369 892.8 312.355 891.961 313.018C891.121 313.675 889.898 314.004 888.291 314.004H884.229ZM897.922 314.004H894.955V304.127H897.739L897.922 306.546V314.004ZM900.77 306.938C900.642 306.926 900.478 306.911 900.277 306.893C900.082 306.874 899.915 306.865 899.775 306.865C899.3 306.865 898.911 306.935 898.606 307.075C898.308 307.209 898.086 307.416 897.94 307.696C897.8 307.97 897.727 308.317 897.721 308.737L897.164 308.399C897.164 307.523 897.277 306.75 897.502 306.08C897.727 305.411 898.046 304.887 898.46 304.51C898.88 304.133 899.385 303.944 899.976 303.944C900.116 303.944 900.265 303.953 900.423 303.972C900.581 303.99 900.712 304.017 900.815 304.054L900.77 306.938ZM907.114 307.459C907.114 307.045 907.017 306.719 906.822 306.482C906.633 306.239 906.32 306.117 905.882 306.117C905.632 306.117 905.419 306.156 905.243 306.235C905.072 306.308 904.941 306.424 904.85 306.582C904.759 306.734 904.713 306.929 904.713 307.167H901.746C901.746 306.552 901.923 306.004 902.276 305.523C902.629 305.037 903.125 304.653 903.764 304.373C904.409 304.087 905.167 303.944 906.037 303.944C906.816 303.944 907.51 304.075 908.118 304.337C908.733 304.598 909.217 304.991 909.57 305.514C909.923 306.038 910.099 306.692 910.099 307.477V311.512C910.099 312.151 910.136 312.638 910.209 312.972C910.282 313.301 910.385 313.59 910.519 313.84V314.004H907.534C907.394 313.706 907.288 313.338 907.215 312.899C907.148 312.461 907.114 312.008 907.114 311.539V307.459ZM907.488 309.622H906.156C905.547 309.622 905.118 309.765 904.868 310.051C904.619 310.331 904.494 310.657 904.494 311.028C904.494 311.302 904.592 311.527 904.786 311.703C904.987 311.88 905.249 311.968 905.571 311.968C905.924 311.968 906.226 311.901 906.475 311.767C906.725 311.634 906.916 311.475 907.05 311.293C907.184 311.104 907.248 310.934 907.242 310.782L907.945 312.041C907.841 312.285 907.71 312.531 907.552 312.781C907.394 313.03 907.196 313.261 906.959 313.474C906.722 313.687 906.432 313.861 906.092 313.995C905.757 314.123 905.355 314.186 904.887 314.186C904.272 314.186 903.706 314.062 903.189 313.812C902.678 313.557 902.27 313.207 901.966 312.762C901.667 312.312 901.518 311.795 901.518 311.211C901.518 310.182 901.896 309.382 902.65 308.81C903.411 308.238 904.567 307.952 906.119 307.952H907.488V309.622ZM914.828 314.004H911.861V304.127H914.645L914.828 306.235V314.004ZM913.696 308.791C913.69 307.775 913.845 306.905 914.161 306.181C914.484 305.456 914.934 304.903 915.512 304.519C916.097 304.136 916.772 303.944 917.539 303.944C918.16 303.944 918.701 304.066 919.164 304.309C919.626 304.553 919.988 304.954 920.25 305.514C920.518 306.068 920.652 306.823 920.652 307.778V314.004H917.667V307.769C917.667 307.386 917.612 307.091 917.502 306.884C917.393 306.677 917.232 306.537 917.019 306.464C916.806 306.385 916.544 306.345 916.234 306.345C915.917 306.345 915.646 306.403 915.421 306.518C915.196 306.634 915.01 306.801 914.864 307.021C914.718 307.234 914.612 307.486 914.545 307.778C914.478 308.07 914.444 308.393 914.444 308.746L913.696 308.791ZM925.901 314.186C925.073 314.186 924.373 313.97 923.801 313.538C923.229 313.1 922.794 312.504 922.496 311.749C922.204 310.995 922.058 310.139 922.058 309.184V308.992C922.058 307.994 922.204 307.118 922.496 306.363C922.794 305.603 923.229 305.009 923.801 304.583C924.379 304.157 925.085 303.944 925.919 303.944C926.68 303.944 927.316 304.172 927.827 304.629C928.344 305.079 928.749 305.688 929.041 306.455C929.339 307.221 929.549 308.082 929.671 309.038V309.23C929.549 310.124 929.339 310.949 929.041 311.703C928.743 312.452 928.338 313.055 927.827 313.511C927.316 313.961 926.674 314.186 925.901 314.186ZM926.658 311.786C927.072 311.786 927.41 311.691 927.672 311.503C927.939 311.314 928.137 311.046 928.265 310.699C928.399 310.352 928.466 309.948 928.466 309.485V308.791C928.466 308.39 928.426 308.037 928.347 307.733C928.274 307.422 928.165 307.167 928.019 306.966C927.873 306.759 927.687 306.604 927.462 306.5C927.243 306.397 926.981 306.345 926.677 306.345C926.275 306.345 925.952 306.461 925.709 306.692C925.466 306.923 925.289 307.24 925.18 307.641C925.076 308.037 925.024 308.487 925.024 308.992V309.184C925.024 309.671 925.073 310.112 925.17 310.508C925.274 310.897 925.444 311.208 925.682 311.439C925.919 311.67 926.245 311.786 926.658 311.786ZM928.475 314.004L928.165 311.74V299.982H931.15V314.004H928.475Z" fill="#9D9DD9"/>
<path d="M881.029 283.535V281.051H884.311C884.776 281.051 885.151 280.975 885.435 280.824C885.725 280.673 885.936 280.468 886.069 280.208C886.208 279.942 886.278 279.64 886.278 279.301C886.278 278.945 886.208 278.615 886.069 278.313C885.936 278.005 885.725 277.757 885.435 277.57C885.151 277.383 884.776 277.289 884.311 277.289H882.126V288.004H879.044V274.805H884.311C885.362 274.805 886.266 274.998 887.021 275.385C887.783 275.772 888.366 276.304 888.771 276.981C889.182 277.651 889.387 278.419 889.387 279.283C889.387 280.135 889.182 280.882 888.771 281.522C888.366 282.157 887.783 282.652 887.021 283.009C886.266 283.359 885.362 283.535 884.311 283.535H881.029ZM893.938 288.004H890.992V278.195H893.757L893.938 280.598V288.004ZM896.766 280.987C896.639 280.975 896.476 280.96 896.277 280.942C896.083 280.924 895.917 280.915 895.778 280.915C895.307 280.915 894.92 280.984 894.618 281.123C894.322 281.256 894.101 281.462 893.956 281.74C893.817 282.012 893.744 282.356 893.738 282.773L893.185 282.438C893.185 281.568 893.297 280.8 893.521 280.135C893.744 279.471 894.062 278.951 894.473 278.576C894.89 278.201 895.391 278.014 895.978 278.014C896.117 278.014 896.265 278.023 896.422 278.041C896.579 278.059 896.709 278.087 896.812 278.123L896.766 280.987ZM897.519 283.018C897.519 282.057 897.7 281.202 898.063 280.453C898.425 279.697 898.954 279.102 899.649 278.667C900.35 278.232 901.205 278.014 902.214 278.014C903.236 278.014 904.097 278.232 904.798 278.667C905.499 279.102 906.028 279.697 906.384 280.453C906.747 281.202 906.928 282.057 906.928 283.018V283.19C906.928 284.145 906.747 285 906.384 285.756C906.028 286.511 905.499 287.106 904.798 287.542C904.103 287.971 903.248 288.185 902.233 288.185C901.217 288.185 900.359 287.971 899.658 287.542C898.957 287.106 898.425 286.511 898.063 285.756C897.7 285 897.519 284.145 897.519 283.19V283.018ZM900.474 283.19C900.474 283.68 900.525 284.124 900.628 284.523C900.737 284.922 900.918 285.236 901.172 285.466C901.432 285.695 901.785 285.81 902.233 285.81C902.674 285.81 903.021 285.695 903.275 285.466C903.535 285.236 903.716 284.922 903.819 284.523C903.928 284.124 903.982 283.68 903.982 283.19V283.018C903.982 282.541 903.928 282.102 903.819 281.704C903.716 281.305 903.535 280.987 903.275 280.752C903.021 280.51 902.668 280.389 902.214 280.389C901.773 280.389 901.426 280.51 901.172 280.752C900.918 280.987 900.737 281.305 900.628 281.704C900.525 282.102 900.474 282.541 900.474 283.018V283.19ZM911.805 288.185C910.983 288.185 910.288 287.971 909.72 287.542C909.152 287.106 908.72 286.514 908.424 285.765C908.134 285.015 907.989 284.166 907.989 283.217V283.027C907.989 282.036 908.134 281.166 908.424 280.416C908.72 279.661 909.152 279.072 909.72 278.649C910.295 278.226 910.996 278.014 911.824 278.014C912.579 278.014 913.211 278.241 913.718 278.694C914.232 279.141 914.634 279.746 914.924 280.507C915.22 281.268 915.428 282.124 915.549 283.072V283.263C915.428 284.151 915.22 284.97 914.924 285.719C914.628 286.463 914.226 287.061 913.718 287.514C913.211 287.962 912.573 288.185 911.805 288.185ZM912.558 285.801C912.969 285.801 913.304 285.707 913.564 285.52C913.83 285.333 914.026 285.067 914.153 284.722C914.286 284.378 914.353 283.976 914.353 283.517V282.828C914.353 282.429 914.313 282.078 914.235 281.776C914.162 281.468 914.054 281.214 913.909 281.015C913.763 280.809 913.579 280.655 913.356 280.552C913.138 280.45 912.878 280.398 912.576 280.398C912.177 280.398 911.857 280.513 911.615 280.743C911.373 280.972 911.198 281.287 911.089 281.685C910.987 282.078 910.935 282.525 910.935 283.027V283.217C910.935 283.701 910.983 284.139 911.08 284.532C911.183 284.919 911.352 285.227 911.588 285.457C911.824 285.686 912.147 285.801 912.558 285.801ZM914.362 288.004L914.054 285.756V274.08H917.018V288.004H914.362ZM924.578 278.195H927.534V288.004H924.769L924.578 285.62V278.195ZM925.684 283.58C925.684 284.462 925.548 285.251 925.276 285.946C925.004 286.641 924.599 287.188 924.062 287.587C923.524 287.986 922.859 288.185 922.067 288.185C921.1 288.185 920.315 287.904 919.71 287.342C919.106 286.774 918.804 285.84 918.804 284.541V278.195H921.75V284.559C921.75 284.843 921.798 285.079 921.895 285.266C921.998 285.448 922.143 285.583 922.33 285.674C922.517 285.759 922.738 285.801 922.992 285.801C923.481 285.801 923.862 285.707 924.134 285.52C924.406 285.327 924.599 285.064 924.714 284.731C924.829 284.393 924.887 284.015 924.887 283.598L925.684 283.58ZM933.526 288.185C932.498 288.185 931.646 287.968 930.969 287.533C930.292 287.091 929.785 286.496 929.446 285.747C929.108 284.997 928.939 284.151 928.939 283.208V283C928.939 282.057 929.105 281.211 929.437 280.462C929.776 279.706 930.283 279.111 930.96 278.676C931.643 278.235 932.492 278.014 933.508 278.014C934.329 278.014 935.049 278.171 935.665 278.485C936.288 278.794 936.774 279.241 937.125 279.827C937.475 280.413 937.65 281.12 937.65 281.948H934.885C934.885 281.664 934.831 281.404 934.722 281.169C934.62 280.933 934.462 280.746 934.251 280.607C934.039 280.462 933.77 280.389 933.444 280.389C933.003 280.389 932.67 280.51 932.447 280.752C932.223 280.993 932.072 281.314 931.994 281.713C931.921 282.105 931.885 282.535 931.885 283V283.208C931.885 283.68 931.921 284.115 931.994 284.514C932.066 284.907 932.214 285.221 932.438 285.457C932.667 285.692 933.009 285.81 933.462 285.81C933.758 285.81 934.012 285.759 934.224 285.656C934.435 285.547 934.598 285.396 934.713 285.203C934.828 285.003 934.885 284.771 934.885 284.505H937.65C937.65 285.236 937.469 285.877 937.106 286.427C936.744 286.977 936.251 287.409 935.629 287.723C935.006 288.031 934.305 288.185 933.526 288.185ZM944.078 280.335H938.194V278.195H944.078V280.335ZM942.455 275.766V284.813C942.455 285.067 942.485 285.263 942.546 285.402C942.612 285.535 942.718 285.629 942.863 285.683C943.014 285.738 943.207 285.765 943.443 285.765C943.606 285.765 943.748 285.762 943.869 285.756C943.99 285.744 944.096 285.729 944.186 285.71V287.922C943.939 288.007 943.679 288.07 943.407 288.113C943.135 288.161 942.833 288.185 942.5 288.185C941.878 288.185 941.343 288.082 940.896 287.877C940.448 287.672 940.104 287.348 939.862 286.907C939.627 286.466 939.509 285.892 939.509 285.185V275.766H942.455Z" fill="#DA9090"/>
<g clip-path="url(#clip5_2453_44617)">
<path d="M97.5857 272C93.738 272 90.7148 275.023 90.7148 278.871V352.801C90.7148 356.649 93.738 359.947 97.5857 359.947H160.523C164.37 359.947 167.393 356.924 167.393 353.076V299.758L141.559 272H97.5857Z" fill="#F7622C"/>
<path d="M167.672 300.037V301.411H150.082C150.082 301.411 141.562 299.762 141.562 292.066C141.562 292.066 141.837 300.037 149.808 300.037H167.672Z" fill="#F54921"/>
<path d="M141.563 272V292.063C141.563 294.262 142.938 300.033 149.808 300.033H167.673L141.563 272ZM116.554 341.808H116.004L105.56 337.136C105.011 336.861 104.461 336.311 104.461 335.487C104.461 334.937 105.011 334.112 105.56 333.838L116.004 329.165H116.279C116.828 329.165 117.378 329.715 117.378 330.54C117.378 331.089 117.103 331.639 116.828 331.914L107.209 336.036L116.828 340.159C117.103 340.434 117.378 340.708 117.378 341.533C117.653 341.533 117.103 341.808 116.554 341.808ZM128.097 326.692L122.05 344.831C121.775 345.381 121.501 345.655 120.951 345.655C120.126 345.655 119.577 345.106 119.577 344.281L119.852 344.006L125.898 325.867C126.173 325.318 126.448 324.768 126.997 324.768C127.822 324.768 128.097 325.318 128.097 326.142V326.692ZM142.388 337.136L131.944 341.808H131.669C131.12 341.808 130.295 341.533 130.295 340.708C130.295 340.159 130.57 339.609 130.845 339.334L140.464 335.212L130.845 331.089C130.57 330.814 130.295 330.54 130.295 329.715C130.295 329.165 130.845 328.341 131.669 328.341H131.944L142.388 333.013C142.938 333.288 143.487 334.112 143.487 334.662C143.212 336.036 142.938 336.861 142.388 337.136Z" fill="white"/>
<path d="M112.715 308.664H106.848V306.766H112.715V308.664ZM107.527 313.539H105.152V302.164H107.527V313.539ZM114.434 313.539H112.074V302.164H114.434V313.539ZM121.504 313.539H119.145V302.164H121.504V313.539ZM124.98 304.078H115.715V302.164H124.98V304.078ZM129.402 302.164L132.301 310.391L135.207 302.164H137.223L133.105 313.539H131.488L127.387 302.164H129.402ZM128.316 302.164L128.676 310.445V313.539H126.309V302.164H128.316ZM138.293 302.164V313.539H135.926V310.445L136.285 302.164H138.293ZM147.66 313.539H141.957V311.633H147.66V313.539ZM142.691 313.539H140.324V302.164H142.691V313.539Z" fill="white"/>
</g>
<defs>
<clipPath id="clip0_2453_44617">
<rect width="158.686" height="160.598" fill="white" transform="translate(173 104)"/>
</clipPath>
<clipPath id="clip1_2453_44617">
<rect width="126.184" height="124.273" fill="white" transform="translate(708.707 83.3906)"/>
</clipPath>
<clipPath id="clip2_2453_44617">
<rect width="58.4907" height="57.6045" fill="white" transform="translate(741.637 113.402)"/>
</clipPath>
<clipPath id="clip3_2453_44617">
<rect width="130.008" height="130.008" fill="white" transform="translate(509.871 5.00391)"/>
</clipPath>
<clipPath id="clip4_2453_44617">
<rect width="46" height="46" fill="white" transform="translate(568.992 17.0039)"/>
</clipPath>
<clipPath id="clip5_2453_44617">
<rect width="87.9467" height="87.9467" fill="white" transform="translate(85 272)"/>
</clipPath>
</defs>
</svg>
