<svg width="32" height="32" viewBox="0 0 32 32" fill="none" xmlns="http://www.w3.org/2000/svg">
<path d="M27.332 5.66797H4.66536C3.3987 5.66797 2.33203 6.73464 2.33203 8.0013V24.0013C2.33203 25.268 3.3987 26.3346 4.66536 26.3346H27.332C28.5987 26.3346 29.6654 25.268 29.6654 24.0013V8.0013C29.6654 6.73464 28.5987 5.66797 27.332 5.66797ZM4.66536 7.66797H27.332C27.532 7.66797 27.6654 7.8013 27.6654 8.0013V8.8013L15.9987 16.1346L4.33203 8.8013V8.0013C4.33203 7.8013 4.46536 7.66797 4.66536 7.66797ZM27.332 24.3346H4.66536C4.46536 24.3346 4.33203 24.2013 4.33203 24.0013V11.1346L15.4654 18.1346C15.5987 18.268 15.7987 18.268 15.9987 18.268C16.1987 18.268 16.3987 18.2013 16.532 18.1346L27.6654 11.1346V24.0013C27.6654 24.2013 27.532 24.3346 27.332 24.3346Z" fill="#8D8D8D"/>
</svg>
