<svg width="31" height="31" viewBox="0 0 31 31" fill="none" xmlns="http://www.w3.org/2000/svg">
<g clip-path="url(#clip0_2382_38539)">
<path d="M15.5 31C6.93935 31 0 24.0606 0 15.5C0 6.93935 6.93935 0 15.5 0C24.0606 0 31 6.93935 31 15.5C31 24.0606 24.0606 31 15.5 31ZM11.3295 22.3303V12.0301H8.22947V22.3303H11.3295ZM9.77947 7.54333C8.77972 7.54333 8.12717 8.23825 8.14732 9.16567C8.12665 10.0502 8.77972 10.7663 9.75932 10.7663C10.7787 10.7663 11.4318 10.0502 11.4318 9.16515C11.4111 8.23825 10.7787 7.54333 9.77947 7.54333ZM13.8182 22.3303H16.9183V16.3902C16.9183 16.0957 16.9596 15.7795 17.0412 15.5894C17.2448 15.0004 17.7547 14.3892 18.6119 14.3892C19.7331 14.3892 20.1825 15.2949 20.1825 16.6222V22.3303H23.2825V16.2218C23.2825 13.189 21.7532 11.7981 19.7129 11.7981C18.0611 11.7981 17.0412 12.7885 16.633 13.4411H16.5716L16.429 12.0301H13.7366C13.7774 12.9358 13.8182 14.0311 13.8182 15.3161V22.3303Z" fill="#8D8D8D"/>
</g>
<defs>
<clipPath id="clip0_2382_38539">
<rect width="31" height="31" fill="white"/>
</clipPath>
</defs>
</svg>
