<svg width="265" height="80" viewBox="0 0 265 80" fill="none" xmlns="http://www.w3.org/2000/svg">
<path d="M127.081 64.432C124.361 64.432 121.913 64.08 119.737 63.376C117.561 62.672 115.673 61.68 114.073 60.4L115.609 56.848C116.729 57.68 117.865 58.384 119.017 58.96C120.169 59.504 121.401 59.92 122.713 60.208C124.057 60.464 125.513 60.592 127.081 60.592C129.865 60.592 131.913 60.096 133.225 59.104C134.569 58.08 135.241 56.736 135.241 55.072C135.241 53.632 134.777 52.528 133.849 51.76C132.921 50.992 131.305 50.384 129.001 49.936L123.865 48.88C120.761 48.24 118.441 47.2 116.905 45.76C115.401 44.288 114.649 42.304 114.649 39.808C114.649 37.792 115.177 36.032 116.233 34.528C117.321 32.992 118.809 31.808 120.697 30.976C122.617 30.144 124.857 29.728 127.417 29.728C129.785 29.728 131.977 30.08 133.993 30.784C136.009 31.488 137.705 32.528 139.081 33.904L137.545 37.312C136.105 36 134.553 35.056 132.889 34.48C131.257 33.872 129.401 33.568 127.321 33.568C124.793 33.568 122.793 34.112 121.321 35.2C119.849 36.288 119.113 37.76 119.113 39.616C119.113 41.088 119.577 42.256 120.505 43.12C121.433 43.952 122.969 44.592 125.113 45.04L130.249 46.048C133.513 46.688 135.897 47.696 137.401 49.072C138.937 50.448 139.705 52.352 139.705 54.784C139.705 56.704 139.193 58.4 138.169 59.872C137.145 61.312 135.689 62.432 133.801 63.232C131.913 64.032 129.673 64.432 127.081 64.432ZM156.361 64.432C153.833 64.432 151.913 63.744 150.601 62.368C149.321 60.96 148.681 58.848 148.681 56.032V43.216H143.977V39.856H148.681V33.376L153.049 32.176V39.856H159.865V43.216H153.049V55.648C153.049 57.504 153.369 58.832 154.009 59.632C154.681 60.4 155.641 60.784 156.889 60.784C157.529 60.784 158.073 60.736 158.521 60.64C159.001 60.512 159.433 60.368 159.817 60.208V63.808C159.337 64 158.777 64.144 158.137 64.24C157.529 64.368 156.937 64.432 156.361 64.432ZM174.959 64.432C172.047 64.432 169.855 63.648 168.383 62.08C166.943 60.512 166.223 58.096 166.223 54.832V39.856H170.591V54.736C170.591 56.848 171.023 58.4 171.887 59.392C172.751 60.384 174.095 60.88 175.919 60.88C177.903 60.88 179.503 60.224 180.719 58.912C181.967 57.568 182.591 55.792 182.591 53.584V39.856H186.959V64H182.735V58.672H183.359C182.687 60.496 181.615 61.92 180.143 62.944C178.671 63.936 176.943 64.432 174.959 64.432ZM205.44 64.432C203.328 64.432 201.472 63.936 199.872 62.944C198.272 61.952 197.024 60.512 196.128 58.624C195.232 56.736 194.784 54.496 194.784 51.904C194.784 49.312 195.232 47.088 196.128 45.232C197.024 43.344 198.272 41.904 199.872 40.912C201.472 39.92 203.328 39.424 205.44 39.424C207.552 39.424 209.392 39.952 210.96 41.008C212.56 42.064 213.632 43.52 214.176 45.376H213.6V28.672H217.968V64H213.648V58.384H214.176C213.664 60.272 212.608 61.76 211.008 62.848C209.44 63.904 207.584 64.432 205.44 64.432ZM206.448 60.976C208.624 60.976 210.368 60.208 211.68 58.672C213.024 57.136 213.696 54.88 213.696 51.904C213.696 48.928 213.024 46.688 211.68 45.184C210.368 43.68 208.624 42.928 206.448 42.928C204.272 42.928 202.512 43.68 201.168 45.184C199.856 46.688 199.2 48.928 199.2 51.904C199.2 54.88 199.856 57.136 201.168 58.672C202.512 60.208 204.272 60.976 206.448 60.976ZM227.207 64V39.856H231.575V64H227.207ZM226.823 34.576V29.872H232.007V34.576H226.823ZM250.975 64.432C248.607 64.432 246.559 63.936 244.831 62.944C243.103 61.92 241.759 60.48 240.799 58.624C239.839 56.736 239.359 54.496 239.359 51.904C239.359 49.344 239.839 47.136 240.799 45.28C241.759 43.392 243.103 41.952 244.831 40.96C246.559 39.936 248.607 39.424 250.975 39.424C253.343 39.424 255.391 39.936 257.119 40.96C258.879 41.952 260.223 43.392 261.151 45.28C262.111 47.136 262.591 49.344 262.591 51.904C262.591 54.496 262.111 56.736 261.151 58.624C260.223 60.48 258.879 61.92 257.119 62.944C255.391 63.936 253.343 64.432 250.975 64.432ZM250.975 60.976C253.151 60.976 254.895 60.208 256.207 58.672C257.519 57.136 258.175 54.88 258.175 51.904C258.175 48.928 257.519 46.688 256.207 45.184C254.895 43.68 253.151 42.928 250.975 42.928C248.767 42.928 247.007 43.68 245.695 45.184C244.415 46.688 243.775 48.928 243.775 51.904C243.775 54.88 244.415 57.136 245.695 58.672C247.007 60.208 248.767 60.976 250.975 60.976Z" fill="white"/>
<path d="M5.9415 64V18.88H11.1895L28.9815 58.944H27.0615L44.8535 18.88H50.0375V64H44.5975V26.816H46.5815L29.8775 64H26.1015L9.3975 26.816H11.3815V64H5.9415Z" fill="#FFB400"/>
<path d="M56.271 64L76.239 18.88H81.423L101.711 64H95.567L89.999 51.2L92.559 52.736H65.103L67.919 51.2L62.351 64H56.271ZM78.735 25.536L68.751 49.216L67.215 47.872H90.447L89.231 49.216L78.991 25.536H78.735Z" fill="#DE4097"/>
<path d="M44.754 64V18.88H63.442C68.2633 18.88 71.9753 20.0107 74.578 22.272C77.2233 24.5333 78.546 27.6907 78.546 31.744C78.546 34.432 77.9487 36.7147 76.754 38.592C75.5593 40.4693 73.874 41.8987 71.698 42.88C69.5647 43.8613 67.0687 44.352 64.21 44.352L65.298 43.456H66.834C68.5833 43.456 70.1407 43.904 71.506 44.8C72.8713 45.6533 74.002 47.0613 74.898 49.024L81.298 64H74.706L68.498 49.152C67.7727 47.3173 66.706 46.1227 65.298 45.568C63.9327 45.0133 62.2047 44.736 60.114 44.736H50.706V64H44.754ZM50.706 40.128H62.546C65.8313 40.128 68.3273 39.424 70.034 38.016C71.7833 36.608 72.658 34.56 72.658 31.872C72.658 29.2267 71.7833 27.2213 70.034 25.856C68.3273 24.448 65.8313 23.744 62.546 23.744H50.706V40.128Z" fill="#3D9176"/>
<path d="M44.5665 64V18.88H50.5185V64H44.5665Z" fill="#ED6401"/>
</svg>
